<?xml version="1.0" encoding="utf-8" standalone="no"?>
<!DOCTYPE svg PUBLIC "-//W3C//DTD SVG 1.1//EN"
  "http://www.w3.org/Graphics/SVG/1.1/DTD/svg11.dtd">
<!-- Created with matplotlib (https://matplotlib.org/) -->
<svg height="864pt" version="1.1" viewBox="0 0 1080 864" width="1080pt" xmlns="http://www.w3.org/2000/svg" xmlns:xlink="http://www.w3.org/1999/xlink">
 <metadata>
  <rdf:RDF xmlns:cc="http://creativecommons.org/ns#" xmlns:dc="http://purl.org/dc/elements/1.1/" xmlns:rdf="http://www.w3.org/1999/02/22-rdf-syntax-ns#">
   <cc:Work>
    <dc:type rdf:resource="http://purl.org/dc/dcmitype/StillImage"/>
    <dc:date>2021-01-01T18:44:02.564110</dc:date>
    <dc:format>image/svg+xml</dc:format>
    <dc:creator>
     <cc:Agent>
      <dc:title>Matplotlib v3.3.3, https://matplotlib.org/</dc:title>
     </cc:Agent>
    </dc:creator>
   </cc:Work>
  </rdf:RDF>
 </metadata>
 <defs>
  <style type="text/css">*{stroke-linecap:butt;stroke-linejoin:round;}</style>
 </defs>
 <g id="figure_1">
  <g id="patch_1">
   <path d="M 0 864 
L 1080 864 
L 1080 0 
L 0 0 
z
" style="fill:#ffffff;"/>
  </g>
  <g id="axes_1">
   <g id="patch_2">
    <path d="M 135 768.96 
L 972 768.96 
L 972 103.68 
L 135 103.68 
z
" style="fill:#ffffff;"/>
   </g>
   <g id="PathCollection_1">
    <defs>
     <path d="M 0 4.743416 
C 1.257969 4.743416 2.464584 4.24362 3.354102 3.354102 
C 4.24362 2.464584 4.743416 1.257969 4.743416 0 
C 4.743416 -1.257969 4.24362 -2.464584 3.354102 -3.354102 
C 2.464584 -4.24362 1.257969 -4.743416 0 -4.743416 
C -1.257969 -4.743416 -2.464584 -4.24362 -3.354102 -3.354102 
C -4.24362 -2.464584 -4.743416 -1.257969 -4.743416 0 
C -4.743416 1.257969 -4.24362 2.464584 -3.354102 3.354102 
C -2.464584 4.24362 -1.257969 4.743416 0 4.743416 
z
" id="ma1329ff732" style="stroke:#ff0000;"/>
    </defs>
    <g clip-path="url(#p6e91e510f4)">
     <use style="fill:#ff0000;stroke:#ff0000;" x="354.289091" xlink:href="#ma1329ff732" y="565.63849"/>
     <use style="fill:#ff0000;stroke:#ff0000;" x="173.045455" xlink:href="#ma1329ff732" y="565.63849"/>
     <use style="fill:#ff0000;stroke:#ff0000;" x="284.58" xlink:href="#ma1329ff732" y="531.15356"/>
     <use style="fill:#ff0000;stroke:#ff0000;" x="278.492727" xlink:href="#ma1329ff732" y="512.433169"/>
     <use style="fill:#ff0000;stroke:#ff0000;" x="310.892727" xlink:href="#ma1329ff732" y="560.055216"/>
     <use style="fill:#ff0000;stroke:#ff0000;" x="193.663636" xlink:href="#ma1329ff732" y="442.642237"/>
     <use style="fill:#ff0000;stroke:#ff0000;" x="226.063636" xlink:href="#ma1329ff732" y="636.578919"/>
     <use style="fill:#ff0000;stroke:#ff0000;" x="315.409091" xlink:href="#ma1329ff732" y="513.911094"/>
     <use style="fill:#ff0000;stroke:#ff0000;" x="236.863636" xlink:href="#ma1329ff732" y="548.724453"/>
     <use style="fill:#ff0000;stroke:#ff0000;" x="345.845455" xlink:href="#ma1329ff732" y="612.439468"/>
     <use style="fill:#ff0000;stroke:#ff0000;" x="206.82" xlink:href="#ma1329ff732" y="457.749921"/>
     <use style="fill:#ff0000;stroke:#ff0000;" x="203.678182" xlink:href="#ma1329ff732" y="573.028118"/>
     <use style="fill:#ff0000;stroke:#ff0000;" x="208.587273" xlink:href="#ma1329ff732" y="580.089318"/>
     <use style="fill:#ff0000;stroke:#ff0000;" x="324.834545" xlink:href="#ma1329ff732" y="548.067597"/>
     <use style="fill:#ff0000;stroke:#ff0000;" x="225.278182" xlink:href="#ma1329ff732" y="527.048211"/>
     <use style="fill:#ff0000;stroke:#ff0000;" x="325.816364" xlink:href="#ma1329ff732" y="420.801781"/>
     <use style="fill:#ff0000;stroke:#ff0000;" x="251.983636" xlink:href="#ma1329ff732" y="433.282042"/>
     <use style="fill:#ff0000;stroke:#ff0000;" x="206.427273" xlink:href="#ma1329ff732" y="458.899419"/>
     <use style="fill:#ff0000;stroke:#ff0000;" x="218.601818" xlink:href="#ma1329ff732" y="485.994722"/>
     <use style="fill:#ff0000;stroke:#ff0000;" x="341.525455" xlink:href="#ma1329ff732" y="555.293011"/>
     <use style="fill:#ff0000;stroke:#ff0000;" x="230.776364" xlink:href="#ma1329ff732" y="585.179951"/>
     <use style="fill:#ff0000;stroke:#ff0000;" x="196.02" xlink:href="#ma1329ff732" y="429.997763"/>
     <use style="fill:#ff0000;stroke:#ff0000;" x="185.416364" xlink:href="#ma1329ff732" y="581.895672"/>
     <use style="fill:#ff0000;stroke:#ff0000;" x="375.889091" xlink:href="#ma1329ff732" y="491.74221"/>
     <use style="fill:#ff0000;stroke:#ff0000;" x="343.685455" xlink:href="#ma1329ff732" y="643.475906"/>
     <use style="fill:#ff0000;stroke:#ff0000;" x="230.776364" xlink:href="#ma1329ff732" y="463.168982"/>
     <use style="fill:#ff0000;stroke:#ff0000;" x="193.074545" xlink:href="#ma1329ff732" y="469.409112"/>
     <use style="fill:#ff0000;stroke:#ff0000;" x="416.929091" xlink:href="#ma1329ff732" y="454.958284"/>
     <use style="fill:#ff0000;stroke:#ff0000;" x="227.045455" xlink:href="#ma1329ff732" y="506.028824"/>
     <use style="fill:#ff0000;stroke:#ff0000;" x="193.074545" xlink:href="#ma1329ff732" y="582.2241"/>
     <use style="fill:#ff0000;stroke:#ff0000;" x="340.347273" xlink:href="#ma1329ff732" y="450.524507"/>
     <use style="fill:#ff0000;stroke:#ff0000;" x="194.449091" xlink:href="#ma1329ff732" y="526.719783"/>
     <use style="fill:#ff0000;stroke:#ff0000;" x="181.292727" xlink:href="#ma1329ff732" y="457.585707"/>
     <use style="fill:#ff0000;stroke:#ff0000;" x="416.732727" xlink:href="#ma1329ff732" y="443.134879"/>
     <use style="fill:#ff0000;stroke:#ff0000;" x="201.321818" xlink:href="#ma1329ff732" y="494.369633"/>
     <use style="fill:#ff0000;stroke:#ff0000;" x="325.62" xlink:href="#ma1329ff732" y="524.256573"/>
     <use style="fill:#ff0000;stroke:#ff0000;" x="253.358182" xlink:href="#ma1329ff732" y="495.354917"/>
     <use style="fill:#ff0000;stroke:#ff0000;" x="320.318182" xlink:href="#ma1329ff732" y="647.909682"/>
     <use style="fill:#ff0000;stroke:#ff0000;" x="414.965455" xlink:href="#ma1329ff732" y="458.570991"/>
     <use style="fill:#ff0000;stroke:#ff0000;" x="361.554545" xlink:href="#ma1329ff732" y="419.159642"/>
     <use style="fill:#ff0000;stroke:#ff0000;" x="268.674545" xlink:href="#ma1329ff732" y="546.261244"/>
     <use style="fill:#ff0000;stroke:#ff0000;" x="311.481818" xlink:href="#ma1329ff732" y="560.876286"/>
     <use style="fill:#ff0000;stroke:#ff0000;" x="341.132727" xlink:href="#ma1329ff732" y="619.500668"/>
     <use style="fill:#ff0000;stroke:#ff0000;" x="262.194545" xlink:href="#ma1329ff732" y="657.598306"/>
     <use style="fill:#ff0000;stroke:#ff0000;" x="345.452727" xlink:href="#ma1329ff732" y="604.721412"/>
     <use style="fill:#ff0000;stroke:#ff0000;" x="328.565455" xlink:href="#ma1329ff732" y="423.757632"/>
     <use style="fill:#ff0000;stroke:#ff0000;" x="265.532727" xlink:href="#ma1329ff732" y="446.254944"/>
     <use style="fill:#ff0000;stroke:#ff0000;" x="246.878182" xlink:href="#ma1329ff732" y="475.813456"/>
     <use style="fill:#ff0000;stroke:#ff0000;" x="360.769091" xlink:href="#ma1329ff732" y="554.143513"/>
     <use style="fill:#ff0000;stroke:#ff0000;" x="185.809091" xlink:href="#ma1329ff732" y="594.704361"/>
    </g>
   </g>
   <g id="PathCollection_2">
    <defs>
     <path d="M 0 4.743416 
C 1.257969 4.743416 2.464584 4.24362 3.354102 3.354102 
C 4.24362 2.464584 4.743416 1.257969 4.743416 0 
C 4.743416 -1.257969 4.24362 -2.464584 3.354102 -3.354102 
C 2.464584 -4.24362 1.257969 -4.743416 0 -4.743416 
C -1.257969 -4.743416 -2.464584 -4.24362 -3.354102 -3.354102 
C -4.24362 -2.464584 -4.743416 -1.257969 -4.743416 0 
C -4.743416 1.257969 -4.24362 2.464584 -3.354102 3.354102 
C -2.464584 4.24362 -1.257969 4.743416 0 4.743416 
z
" id="m6d486cebe1" style="stroke:#0000ff;"/>
    </defs>
    <g clip-path="url(#p6e91e510f4)">
     <use style="fill:#0000ff;stroke:#0000ff;" x="587.961818" xlink:href="#m6d486cebe1" y="732.47987"/>
     <use style="fill:#0000ff;stroke:#0000ff;" x="823.794545" xlink:href="#m6d486cebe1" y="647.581254"/>
     <use style="fill:#0000ff;stroke:#0000ff;" x="645.496364" xlink:href="#m6d486cebe1" y="721.970176"/>
     <use style="fill:#0000ff;stroke:#0000ff;" x="701.263636" xlink:href="#m6d486cebe1" y="726.896595"/>
     <use style="fill:#0000ff;stroke:#0000ff;" x="854.623636" xlink:href="#m6d486cebe1" y="694.218018"/>
     <use style="fill:#0000ff;stroke:#0000ff;" x="757.423636" xlink:href="#m6d486cebe1" y="543.305392"/>
     <use style="fill:#0000ff;stroke:#0000ff;" x="702.245455" xlink:href="#m6d486cebe1" y="599.302351"/>
     <use style="fill:#0000ff;stroke:#0000ff;" x="728.950909" xlink:href="#m6d486cebe1" y="738.72"/>
     <use style="fill:#0000ff;stroke:#0000ff;" x="651.976364" xlink:href="#m6d486cebe1" y="591.584295"/>
     <use style="fill:#0000ff;stroke:#0000ff;" x="809.656364" xlink:href="#m6d486cebe1" y="649.223394"/>
     <use style="fill:#0000ff;stroke:#0000ff;" x="660.616364" xlink:href="#m6d486cebe1" y="735.271507"/>
     <use style="fill:#0000ff;stroke:#0000ff;" x="769.009091" xlink:href="#m6d486cebe1" y="661.375227"/>
     <use style="fill:#0000ff;stroke:#0000ff;" x="597.190909" xlink:href="#m6d486cebe1" y="691.097953"/>
     <use style="fill:#0000ff;stroke:#0000ff;" x="644.710909" xlink:href="#m6d486cebe1" y="572.535477"/>
     <use style="fill:#0000ff;stroke:#0000ff;" x="703.227273" xlink:href="#m6d486cebe1" y="736.092577"/>
     <use style="fill:#0000ff;stroke:#0000ff;" x="847.750909" xlink:href="#m6d486cebe1" y="703.085572"/>
     <use style="fill:#0000ff;stroke:#0000ff;" x="574.609091" xlink:href="#m6d486cebe1" y="563.175281"/>
     <use style="fill:#0000ff;stroke:#0000ff;" x="857.372727" xlink:href="#m6d486cebe1" y="520.315439"/>
     <use style="fill:#0000ff;stroke:#0000ff;" x="524.143636" xlink:href="#m6d486cebe1" y="643.311692"/>
     <use style="fill:#0000ff;stroke:#0000ff;" x="675.147273" xlink:href="#m6d486cebe1" y="723.940744"/>
     <use style="fill:#0000ff;stroke:#0000ff;" x="545.94" xlink:href="#m6d486cebe1" y="621.635449"/>
     <use style="fill:#0000ff;stroke:#0000ff;" x="823.401818" xlink:href="#m6d486cebe1" y="516.702731"/>
     <use style="fill:#0000ff;stroke:#0000ff;" x="622.718182" xlink:href="#m6d486cebe1" y="656.12038"/>
     <use style="fill:#0000ff;stroke:#0000ff;" x="820.063636" xlink:href="#m6d486cebe1" y="629.517719"/>
     <use style="fill:#0000ff;stroke:#0000ff;" x="795.518182" xlink:href="#m6d486cebe1" y="594.540147"/>
     <use style="fill:#0000ff;stroke:#0000ff;" x="631.358182" xlink:href="#m6d486cebe1" y="721.149107"/>
     <use style="fill:#0000ff;stroke:#0000ff;" x="835.38" xlink:href="#m6d486cebe1" y="672.049134"/>
     <use style="fill:#0000ff;stroke:#0000ff;" x="633.910909" xlink:href="#m6d486cebe1" y="725.911311"/>
     <use style="fill:#0000ff;stroke:#0000ff;" x="662.383636" xlink:href="#m6d486cebe1" y="682.230399"/>
     <use style="fill:#0000ff;stroke:#0000ff;" x="561.649091" xlink:href="#m6d486cebe1" y="689.127385"/>
     <use style="fill:#0000ff;stroke:#0000ff;" x="741.321818" xlink:href="#m6d486cebe1" y="597.003356"/>
     <use style="fill:#0000ff;stroke:#0000ff;" x="742.5" xlink:href="#m6d486cebe1" y="660.718371"/>
     <use style="fill:#0000ff;stroke:#0000ff;" x="635.481818" xlink:href="#m6d486cebe1" y="721.477535"/>
     <use style="fill:#0000ff;stroke:#0000ff;" x="771.365455" xlink:href="#m6d486cebe1" y="541.006397"/>
     <use style="fill:#0000ff;stroke:#0000ff;" x="695.372727" xlink:href="#m6d486cebe1" y="667.286929"/>
     <use style="fill:#0000ff;stroke:#0000ff;" x="670.434545" xlink:href="#m6d486cebe1" y="603.571914"/>
     <use style="fill:#0000ff;stroke:#0000ff;" x="543.190909" xlink:href="#m6d486cebe1" y="549.217095"/>
     <use style="fill:#0000ff;stroke:#0000ff;" x="689.678182" xlink:href="#m6d486cebe1" y="585.344165"/>
     <use style="fill:#0000ff;stroke:#0000ff;" x="575.394545" xlink:href="#m6d486cebe1" y="579.596677"/>
     <use style="fill:#0000ff;stroke:#0000ff;" x="621.147273" xlink:href="#m6d486cebe1" y="647.909682"/>
     <use style="fill:#0000ff;stroke:#0000ff;" x="545.154545" xlink:href="#m6d486cebe1" y="665.480576"/>
     <use style="fill:#0000ff;stroke:#0000ff;" x="640.783636" xlink:href="#m6d486cebe1" y="571.714407"/>
     <use style="fill:#0000ff;stroke:#0000ff;" x="630.18" xlink:href="#m6d486cebe1" y="522.286006"/>
     <use style="fill:#0000ff;stroke:#0000ff;" x="568.325455" xlink:href="#m6d486cebe1" y="603.4077"/>
     <use style="fill:#0000ff;stroke:#0000ff;" x="624.681818" xlink:href="#m6d486cebe1" y="729.524018"/>
     <use style="fill:#0000ff;stroke:#0000ff;" x="756.049091" xlink:href="#m6d486cebe1" y="665.152148"/>
     <use style="fill:#0000ff;stroke:#0000ff;" x="775.685455" xlink:href="#m6d486cebe1" y="510.791029"/>
     <use style="fill:#0000ff;stroke:#0000ff;" x="743.285455" xlink:href="#m6d486cebe1" y="690.933739"/>
     <use style="fill:#0000ff;stroke:#0000ff;" x="816.725455" xlink:href="#m6d486cebe1" y="659.076231"/>
     <use style="fill:#0000ff;stroke:#0000ff;" x="704.798182" xlink:href="#m6d486cebe1" y="557.099365"/>
    </g>
   </g>
   <g id="PathCollection_3">
    <defs>
     <path d="M 0 4.743416 
C 1.257969 4.743416 2.464584 4.24362 3.354102 3.354102 
C 4.24362 2.464584 4.743416 1.257969 4.743416 0 
C 4.743416 -1.257969 4.24362 -2.464584 3.354102 -3.354102 
C 2.464584 -4.24362 1.257969 -4.743416 0 -4.743416 
C -1.257969 -4.743416 -2.464584 -4.24362 -3.354102 -3.354102 
C -4.24362 -2.464584 -4.743416 -1.257969 -4.743416 0 
C -4.743416 1.257969 -4.24362 2.464584 -3.354102 3.354102 
C -2.464584 4.24362 -1.257969 4.743416 0 4.743416 
z
" id="me83ec7b310" style="stroke:#008000;"/>
    </defs>
    <g clip-path="url(#p6e91e510f4)">
     <use style="fill:#008000;stroke:#008000;" x="890.754545" xlink:href="#me83ec7b310" y="316.525919"/>
     <use style="fill:#008000;stroke:#008000;" x="707.94" xlink:href="#me83ec7b310" y="209.786848"/>
     <use style="fill:#008000;stroke:#008000;" x="735.627273" xlink:href="#me83ec7b310" y="160.194233"/>
     <use style="fill:#008000;stroke:#008000;" x="712.849091" xlink:href="#me83ec7b310" y="268.247016"/>
     <use style="fill:#008000;stroke:#008000;" x="795.125455" xlink:href="#me83ec7b310" y="179.407266"/>
     <use style="fill:#008000;stroke:#008000;" x="840.289091" xlink:href="#me83ec7b310" y="231.298876"/>
     <use style="fill:#008000;stroke:#008000;" x="795.321818" xlink:href="#me83ec7b310" y="156.088884"/>
     <use style="fill:#008000;stroke:#008000;" x="796.696364" xlink:href="#me83ec7b310" y="351.175064"/>
     <use style="fill:#008000;stroke:#008000;" x="690.267273" xlink:href="#me83ec7b310" y="314.06271"/>
     <use style="fill:#008000;stroke:#008000;" x="839.503636" xlink:href="#me83ec7b310" y="175.137703"/>
     <use style="fill:#008000;stroke:#008000;" x="703.62" xlink:href="#me83ec7b310" y="242.629639"/>
     <use style="fill:#008000;stroke:#008000;" x="703.227273" xlink:href="#me83ec7b310" y="291.401184"/>
     <use style="fill:#008000;stroke:#008000;" x="842.645455" xlink:href="#me83ec7b310" y="156.581526"/>
     <use style="fill:#008000;stroke:#008000;" x="744.070909" xlink:href="#me83ec7b310" y="245.749704"/>
     <use style="fill:#008000;stroke:#008000;" x="664.347273" xlink:href="#me83ec7b310" y="329.00618"/>
     <use style="fill:#008000;stroke:#008000;" x="818.885455" xlink:href="#me83ec7b310" y="330.155677"/>
     <use style="fill:#008000;stroke:#008000;" x="677.896364" xlink:href="#me83ec7b310" y="354.295129"/>
     <use style="fill:#008000;stroke:#008000;" x="933.758182" xlink:href="#me83ec7b310" y="229.985164"/>
     <use style="fill:#008000;stroke:#008000;" x="921.190909" xlink:href="#me83ec7b310" y="338.037947"/>
     <use style="fill:#008000;stroke:#008000;" x="663.365455" xlink:href="#me83ec7b310" y="245.421276"/>
     <use style="fill:#008000;stroke:#008000;" x="775.685455" xlink:href="#me83ec7b310" y="197.470801"/>
     <use style="fill:#008000;stroke:#008000;" x="836.361818" xlink:href="#me83ec7b310" y="343.785436"/>
     <use style="fill:#008000;stroke:#008000;" x="770.972727" xlink:href="#me83ec7b310" y="317.346989"/>
     <use style="fill:#008000;stroke:#008000;" x="685.947273" xlink:href="#me83ec7b310" y="365.297464"/>
     <use style="fill:#008000;stroke:#008000;" x="844.609091" xlink:href="#me83ec7b310" y="148.535042"/>
     <use style="fill:#008000;stroke:#008000;" x="900.769091" xlink:href="#me83ec7b310" y="264.305881"/>
     <use style="fill:#008000;stroke:#008000;" x="830.078182" xlink:href="#me83ec7b310" y="149.68454"/>
     <use style="fill:#008000;stroke:#008000;" x="784.914545" xlink:href="#me83ec7b310" y="133.92"/>
     <use style="fill:#008000;stroke:#008000;" x="859.14" xlink:href="#me83ec7b310" y="141.145414"/>
     <use style="fill:#008000;stroke:#008000;" x="689.874545" xlink:href="#me83ec7b310" y="371.37338"/>
     <use style="fill:#008000;stroke:#008000;" x="783.343636" xlink:href="#me83ec7b310" y="370.552311"/>
     <use style="fill:#008000;stroke:#008000;" x="927.670909" xlink:href="#me83ec7b310" y="336.560022"/>
     <use style="fill:#008000;stroke:#008000;" x="760.958182" xlink:href="#me83ec7b310" y="249.033983"/>
     <use style="fill:#008000;stroke:#008000;" x="807.496364" xlink:href="#me83ec7b310" y="161.672159"/>
     <use style="fill:#008000;stroke:#008000;" x="753.3" xlink:href="#me83ec7b310" y="231.298876"/>
     <use style="fill:#008000;stroke:#008000;" x="700.870909" xlink:href="#me83ec7b310" y="283.190486"/>
     <use style="fill:#008000;stroke:#008000;" x="810.245455" xlink:href="#me83ec7b310" y="314.88378"/>
     <use style="fill:#008000;stroke:#008000;" x="661.401818" xlink:href="#me83ec7b310" y="291.23697"/>
     <use style="fill:#008000;stroke:#008000;" x="744.66" xlink:href="#me83ec7b310" y="250.676123"/>
     <use style="fill:#008000;stroke:#008000;" x="796.107273" xlink:href="#me83ec7b310" y="246.570774"/>
     <use style="fill:#008000;stroke:#008000;" x="699.692727" xlink:href="#me83ec7b310" y="246.40656"/>
     <use style="fill:#008000;stroke:#008000;" x="772.347273" xlink:href="#me83ec7b310" y="306.508868"/>
     <use style="fill:#008000;stroke:#008000;" x="927.081818" xlink:href="#me83ec7b310" y="360.535259"/>
     <use style="fill:#008000;stroke:#008000;" x="855.998182" xlink:href="#me83ec7b310" y="317.182775"/>
     <use style="fill:#008000;stroke:#008000;" x="693.409091" xlink:href="#me83ec7b310" y="307.658365"/>
     <use style="fill:#008000;stroke:#008000;" x="907.052727" xlink:href="#me83ec7b310" y="326.54297"/>
     <use style="fill:#008000;stroke:#008000;" x="874.26" xlink:href="#me83ec7b310" y="242.793853"/>
     <use style="fill:#008000;stroke:#008000;" x="933.954545" xlink:href="#me83ec7b310" y="139.174847"/>
     <use style="fill:#008000;stroke:#008000;" x="834.005455" xlink:href="#me83ec7b310" y="329.991463"/>
     <use style="fill:#008000;stroke:#008000;" x="911.372727" xlink:href="#me83ec7b310" y="219.803899"/>
    </g>
   </g>
   <g id="matplotlib.axis_1">
    <g id="xtick_1">
     <g id="line2d_1">
      <defs>
       <path d="M 0 0 
L 0 3.5 
" id="m1a3bd47591" style="stroke:#000000;stroke-width:0.8;"/>
      </defs>
      <g>
       <use style="stroke:#000000;stroke-width:0.8;" x="168.136364" xlink:href="#m1a3bd47591" y="768.96"/>
      </g>
     </g>
     <g id="text_1">
      <!-- 5 -->
      <g transform="translate(164.955114 783.558437)scale(0.1 -0.1)">
       <defs>
        <path d="M 10.796875 72.90625 
L 49.515625 72.90625 
L 49.515625 64.59375 
L 19.828125 64.59375 
L 19.828125 46.734375 
Q 21.96875 47.46875 24.109375 47.828125 
Q 26.265625 48.1875 28.421875 48.1875 
Q 40.625 48.1875 47.75 41.5 
Q 54.890625 34.8125 54.890625 23.390625 
Q 54.890625 11.625 47.5625 5.09375 
Q 40.234375 -1.421875 26.90625 -1.421875 
Q 22.3125 -1.421875 17.546875 -0.640625 
Q 12.796875 0.140625 7.71875 1.703125 
L 7.71875 11.625 
Q 12.109375 9.234375 16.796875 8.0625 
Q 21.484375 6.890625 26.703125 6.890625 
Q 35.15625 6.890625 40.078125 11.328125 
Q 45.015625 15.765625 45.015625 23.390625 
Q 45.015625 31 40.078125 35.4375 
Q 35.15625 39.890625 26.703125 39.890625 
Q 22.75 39.890625 18.8125 39.015625 
Q 14.890625 38.140625 10.796875 36.28125 
z
" id="DejaVuSans-53"/>
       </defs>
       <use xlink:href="#DejaVuSans-53"/>
      </g>
     </g>
    </g>
    <g id="xtick_2">
     <g id="line2d_2">
      <g>
       <use style="stroke:#000000;stroke-width:0.8;" x="266.318182" xlink:href="#m1a3bd47591" y="768.96"/>
      </g>
     </g>
     <g id="text_2">
      <!-- 10 -->
      <g transform="translate(259.955682 783.558437)scale(0.1 -0.1)">
       <defs>
        <path d="M 12.40625 8.296875 
L 28.515625 8.296875 
L 28.515625 63.921875 
L 10.984375 60.40625 
L 10.984375 69.390625 
L 28.421875 72.90625 
L 38.28125 72.90625 
L 38.28125 8.296875 
L 54.390625 8.296875 
L 54.390625 0 
L 12.40625 0 
z
" id="DejaVuSans-49"/>
        <path d="M 31.78125 66.40625 
Q 24.171875 66.40625 20.328125 58.90625 
Q 16.5 51.421875 16.5 36.375 
Q 16.5 21.390625 20.328125 13.890625 
Q 24.171875 6.390625 31.78125 6.390625 
Q 39.453125 6.390625 43.28125 13.890625 
Q 47.125 21.390625 47.125 36.375 
Q 47.125 51.421875 43.28125 58.90625 
Q 39.453125 66.40625 31.78125 66.40625 
z
M 31.78125 74.21875 
Q 44.046875 74.21875 50.515625 64.515625 
Q 56.984375 54.828125 56.984375 36.375 
Q 56.984375 17.96875 50.515625 8.265625 
Q 44.046875 -1.421875 31.78125 -1.421875 
Q 19.53125 -1.421875 13.0625 8.265625 
Q 6.59375 17.96875 6.59375 36.375 
Q 6.59375 54.828125 13.0625 64.515625 
Q 19.53125 74.21875 31.78125 74.21875 
z
" id="DejaVuSans-48"/>
       </defs>
       <use xlink:href="#DejaVuSans-49"/>
       <use x="63.623047" xlink:href="#DejaVuSans-48"/>
      </g>
     </g>
    </g>
    <g id="xtick_3">
     <g id="line2d_3">
      <g>
       <use style="stroke:#000000;stroke-width:0.8;" x="364.5" xlink:href="#m1a3bd47591" y="768.96"/>
      </g>
     </g>
     <g id="text_3">
      <!-- 15 -->
      <g transform="translate(358.1375 783.558437)scale(0.1 -0.1)">
       <use xlink:href="#DejaVuSans-49"/>
       <use x="63.623047" xlink:href="#DejaVuSans-53"/>
      </g>
     </g>
    </g>
    <g id="xtick_4">
     <g id="line2d_4">
      <g>
       <use style="stroke:#000000;stroke-width:0.8;" x="462.681818" xlink:href="#m1a3bd47591" y="768.96"/>
      </g>
     </g>
     <g id="text_4">
      <!-- 20 -->
      <g transform="translate(456.319318 783.558437)scale(0.1 -0.1)">
       <defs>
        <path d="M 19.1875 8.296875 
L 53.609375 8.296875 
L 53.609375 0 
L 7.328125 0 
L 7.328125 8.296875 
Q 12.9375 14.109375 22.625 23.890625 
Q 32.328125 33.6875 34.8125 36.53125 
Q 39.546875 41.84375 41.421875 45.53125 
Q 43.3125 49.21875 43.3125 52.78125 
Q 43.3125 58.59375 39.234375 62.25 
Q 35.15625 65.921875 28.609375 65.921875 
Q 23.96875 65.921875 18.8125 64.3125 
Q 13.671875 62.703125 7.8125 59.421875 
L 7.8125 69.390625 
Q 13.765625 71.78125 18.9375 73 
Q 24.125 74.21875 28.421875 74.21875 
Q 39.75 74.21875 46.484375 68.546875 
Q 53.21875 62.890625 53.21875 53.421875 
Q 53.21875 48.921875 51.53125 44.890625 
Q 49.859375 40.875 45.40625 35.40625 
Q 44.1875 33.984375 37.640625 27.21875 
Q 31.109375 20.453125 19.1875 8.296875 
z
" id="DejaVuSans-50"/>
       </defs>
       <use xlink:href="#DejaVuSans-50"/>
       <use x="63.623047" xlink:href="#DejaVuSans-48"/>
      </g>
     </g>
    </g>
    <g id="xtick_5">
     <g id="line2d_5">
      <g>
       <use style="stroke:#000000;stroke-width:0.8;" x="560.863636" xlink:href="#m1a3bd47591" y="768.96"/>
      </g>
     </g>
     <g id="text_5">
      <!-- 25 -->
      <g transform="translate(554.501136 783.558437)scale(0.1 -0.1)">
       <use xlink:href="#DejaVuSans-50"/>
       <use x="63.623047" xlink:href="#DejaVuSans-53"/>
      </g>
     </g>
    </g>
    <g id="xtick_6">
     <g id="line2d_6">
      <g>
       <use style="stroke:#000000;stroke-width:0.8;" x="659.045455" xlink:href="#m1a3bd47591" y="768.96"/>
      </g>
     </g>
     <g id="text_6">
      <!-- 30 -->
      <g transform="translate(652.682955 783.558437)scale(0.1 -0.1)">
       <defs>
        <path d="M 40.578125 39.3125 
Q 47.65625 37.796875 51.625 33 
Q 55.609375 28.21875 55.609375 21.1875 
Q 55.609375 10.40625 48.1875 4.484375 
Q 40.765625 -1.421875 27.09375 -1.421875 
Q 22.515625 -1.421875 17.65625 -0.515625 
Q 12.796875 0.390625 7.625 2.203125 
L 7.625 11.71875 
Q 11.71875 9.328125 16.59375 8.109375 
Q 21.484375 6.890625 26.8125 6.890625 
Q 36.078125 6.890625 40.9375 10.546875 
Q 45.796875 14.203125 45.796875 21.1875 
Q 45.796875 27.640625 41.28125 31.265625 
Q 36.765625 34.90625 28.71875 34.90625 
L 20.21875 34.90625 
L 20.21875 43.015625 
L 29.109375 43.015625 
Q 36.375 43.015625 40.234375 45.921875 
Q 44.09375 48.828125 44.09375 54.296875 
Q 44.09375 59.90625 40.109375 62.90625 
Q 36.140625 65.921875 28.71875 65.921875 
Q 24.65625 65.921875 20.015625 65.03125 
Q 15.375 64.15625 9.8125 62.3125 
L 9.8125 71.09375 
Q 15.4375 72.65625 20.34375 73.4375 
Q 25.25 74.21875 29.59375 74.21875 
Q 40.828125 74.21875 47.359375 69.109375 
Q 53.90625 64.015625 53.90625 55.328125 
Q 53.90625 49.265625 50.4375 45.09375 
Q 46.96875 40.921875 40.578125 39.3125 
z
" id="DejaVuSans-51"/>
       </defs>
       <use xlink:href="#DejaVuSans-51"/>
       <use x="63.623047" xlink:href="#DejaVuSans-48"/>
      </g>
     </g>
    </g>
    <g id="xtick_7">
     <g id="line2d_7">
      <g>
       <use style="stroke:#000000;stroke-width:0.8;" x="757.227273" xlink:href="#m1a3bd47591" y="768.96"/>
      </g>
     </g>
     <g id="text_7">
      <!-- 35 -->
      <g transform="translate(750.864773 783.558437)scale(0.1 -0.1)">
       <use xlink:href="#DejaVuSans-51"/>
       <use x="63.623047" xlink:href="#DejaVuSans-53"/>
      </g>
     </g>
    </g>
    <g id="xtick_8">
     <g id="line2d_8">
      <g>
       <use style="stroke:#000000;stroke-width:0.8;" x="855.409091" xlink:href="#m1a3bd47591" y="768.96"/>
      </g>
     </g>
     <g id="text_8">
      <!-- 40 -->
      <g transform="translate(849.046591 783.558437)scale(0.1 -0.1)">
       <defs>
        <path d="M 37.796875 64.3125 
L 12.890625 25.390625 
L 37.796875 25.390625 
z
M 35.203125 72.90625 
L 47.609375 72.90625 
L 47.609375 25.390625 
L 58.015625 25.390625 
L 58.015625 17.1875 
L 47.609375 17.1875 
L 47.609375 0 
L 37.796875 0 
L 37.796875 17.1875 
L 4.890625 17.1875 
L 4.890625 26.703125 
z
" id="DejaVuSans-52"/>
       </defs>
       <use xlink:href="#DejaVuSans-52"/>
       <use x="63.623047" xlink:href="#DejaVuSans-48"/>
      </g>
     </g>
    </g>
    <g id="xtick_9">
     <g id="line2d_9">
      <g>
       <use style="stroke:#000000;stroke-width:0.8;" x="953.590909" xlink:href="#m1a3bd47591" y="768.96"/>
      </g>
     </g>
     <g id="text_9">
      <!-- 45 -->
      <g transform="translate(947.228409 783.558437)scale(0.1 -0.1)">
       <use xlink:href="#DejaVuSans-52"/>
       <use x="63.623047" xlink:href="#DejaVuSans-53"/>
      </g>
     </g>
    </g>
    <g id="text_10">
     <!-- x -->
     <g transform="translate(550.540625 797.236562)scale(0.1 -0.1)">
      <defs>
       <path d="M 54.890625 54.6875 
L 35.109375 28.078125 
L 55.90625 0 
L 45.3125 0 
L 29.390625 21.484375 
L 13.484375 0 
L 2.875 0 
L 24.125 28.609375 
L 4.6875 54.6875 
L 15.28125 54.6875 
L 29.78125 35.203125 
L 44.28125 54.6875 
z
" id="DejaVuSans-120"/>
      </defs>
      <use xlink:href="#DejaVuSans-120"/>
     </g>
    </g>
   </g>
   <g id="matplotlib.axis_2">
    <g id="ytick_1">
     <g id="line2d_10">
      <defs>
       <path d="M 0 0 
L -3.5 0 
" id="ma1cc831a88" style="stroke:#000000;stroke-width:0.8;"/>
      </defs>
      <g>
       <use style="stroke:#000000;stroke-width:0.8;" x="135" xlink:href="#ma1cc831a88" y="739.705284"/>
      </g>
     </g>
     <g id="text_11">
      <!-- 5 -->
      <g transform="translate(121.6375 743.504502)scale(0.1 -0.1)">
       <use xlink:href="#DejaVuSans-53"/>
      </g>
     </g>
    </g>
    <g id="ytick_2">
     <g id="line2d_11">
      <g>
       <use style="stroke:#000000;stroke-width:0.8;" x="135" xlink:href="#ma1cc831a88" y="657.598306"/>
      </g>
     </g>
     <g id="text_12">
      <!-- 10 -->
      <g transform="translate(115.275 661.397524)scale(0.1 -0.1)">
       <use xlink:href="#DejaVuSans-49"/>
       <use x="63.623047" xlink:href="#DejaVuSans-48"/>
      </g>
     </g>
    </g>
    <g id="ytick_3">
     <g id="line2d_12">
      <g>
       <use style="stroke:#000000;stroke-width:0.8;" x="135" xlink:href="#ma1cc831a88" y="575.491328"/>
      </g>
     </g>
     <g id="text_13">
      <!-- 15 -->
      <g transform="translate(115.275 579.290546)scale(0.1 -0.1)">
       <use xlink:href="#DejaVuSans-49"/>
       <use x="63.623047" xlink:href="#DejaVuSans-53"/>
      </g>
     </g>
    </g>
    <g id="ytick_4">
     <g id="line2d_13">
      <g>
       <use style="stroke:#000000;stroke-width:0.8;" x="135" xlink:href="#ma1cc831a88" y="493.38435"/>
      </g>
     </g>
     <g id="text_14">
      <!-- 20 -->
      <g transform="translate(115.275 497.183568)scale(0.1 -0.1)">
       <use xlink:href="#DejaVuSans-50"/>
       <use x="63.623047" xlink:href="#DejaVuSans-48"/>
      </g>
     </g>
    </g>
    <g id="ytick_5">
     <g id="line2d_14">
      <g>
       <use style="stroke:#000000;stroke-width:0.8;" x="135" xlink:href="#ma1cc831a88" y="411.277372"/>
      </g>
     </g>
     <g id="text_15">
      <!-- 25 -->
      <g transform="translate(115.275 415.07659)scale(0.1 -0.1)">
       <use xlink:href="#DejaVuSans-50"/>
       <use x="63.623047" xlink:href="#DejaVuSans-53"/>
      </g>
     </g>
    </g>
    <g id="ytick_6">
     <g id="line2d_15">
      <g>
       <use style="stroke:#000000;stroke-width:0.8;" x="135" xlink:href="#ma1cc831a88" y="329.170394"/>
      </g>
     </g>
     <g id="text_16">
      <!-- 30 -->
      <g transform="translate(115.275 332.969612)scale(0.1 -0.1)">
       <use xlink:href="#DejaVuSans-51"/>
       <use x="63.623047" xlink:href="#DejaVuSans-48"/>
      </g>
     </g>
    </g>
    <g id="ytick_7">
     <g id="line2d_16">
      <g>
       <use style="stroke:#000000;stroke-width:0.8;" x="135" xlink:href="#ma1cc831a88" y="247.063416"/>
      </g>
     </g>
     <g id="text_17">
      <!-- 35 -->
      <g transform="translate(115.275 250.862634)scale(0.1 -0.1)">
       <use xlink:href="#DejaVuSans-51"/>
       <use x="63.623047" xlink:href="#DejaVuSans-53"/>
      </g>
     </g>
    </g>
    <g id="ytick_8">
     <g id="line2d_17">
      <g>
       <use style="stroke:#000000;stroke-width:0.8;" x="135" xlink:href="#ma1cc831a88" y="164.956438"/>
      </g>
     </g>
     <g id="text_18">
      <!-- 40 -->
      <g transform="translate(115.275 168.755656)scale(0.1 -0.1)">
       <use xlink:href="#DejaVuSans-52"/>
       <use x="63.623047" xlink:href="#DejaVuSans-48"/>
      </g>
     </g>
    </g>
    <g id="text_19">
     <!-- y -->
     <g transform="translate(109.195312 439.279375)rotate(-90)scale(0.1 -0.1)">
      <defs>
       <path d="M 32.171875 -5.078125 
Q 28.375 -14.84375 24.75 -17.8125 
Q 21.140625 -20.796875 15.09375 -20.796875 
L 7.90625 -20.796875 
L 7.90625 -13.28125 
L 13.1875 -13.28125 
Q 16.890625 -13.28125 18.9375 -11.515625 
Q 21 -9.765625 23.484375 -3.21875 
L 25.09375 0.875 
L 2.984375 54.6875 
L 12.5 54.6875 
L 29.59375 11.921875 
L 46.6875 54.6875 
L 56.203125 54.6875 
z
" id="DejaVuSans-121"/>
      </defs>
      <use xlink:href="#DejaVuSans-121"/>
     </g>
    </g>
   </g>
   <g id="patch_3">
    <path d="M 135 768.96 
L 135 103.68 
" style="fill:none;stroke:#000000;stroke-linecap:square;stroke-linejoin:miter;stroke-width:0.8;"/>
   </g>
   <g id="patch_4">
    <path d="M 972 768.96 
L 972 103.68 
" style="fill:none;stroke:#000000;stroke-linecap:square;stroke-linejoin:miter;stroke-width:0.8;"/>
   </g>
   <g id="patch_5">
    <path d="M 135 768.96 
L 972 768.96 
" style="fill:none;stroke:#000000;stroke-linecap:square;stroke-linejoin:miter;stroke-width:0.8;"/>
   </g>
   <g id="patch_6">
    <path d="M 135 103.68 
L 972 103.68 
" style="fill:none;stroke:#000000;stroke-linecap:square;stroke-linejoin:miter;stroke-width:0.8;"/>
   </g>
   <g id="text_20">
    <!-- Raw Data -->
    <g transform="translate(524.649375 97.68)scale(0.12 -0.12)">
     <defs>
      <path d="M 44.390625 34.1875 
Q 47.5625 33.109375 50.5625 29.59375 
Q 53.5625 26.078125 56.59375 19.921875 
L 66.609375 0 
L 56 0 
L 46.6875 18.703125 
Q 43.0625 26.03125 39.671875 28.421875 
Q 36.28125 30.8125 30.421875 30.8125 
L 19.671875 30.8125 
L 19.671875 0 
L 9.8125 0 
L 9.8125 72.90625 
L 32.078125 72.90625 
Q 44.578125 72.90625 50.734375 67.671875 
Q 56.890625 62.453125 56.890625 51.90625 
Q 56.890625 45.015625 53.6875 40.46875 
Q 50.484375 35.9375 44.390625 34.1875 
z
M 19.671875 64.796875 
L 19.671875 38.921875 
L 32.078125 38.921875 
Q 39.203125 38.921875 42.84375 42.21875 
Q 46.484375 45.515625 46.484375 51.90625 
Q 46.484375 58.296875 42.84375 61.546875 
Q 39.203125 64.796875 32.078125 64.796875 
z
" id="DejaVuSans-82"/>
      <path d="M 34.28125 27.484375 
Q 23.390625 27.484375 19.1875 25 
Q 14.984375 22.515625 14.984375 16.5 
Q 14.984375 11.71875 18.140625 8.90625 
Q 21.296875 6.109375 26.703125 6.109375 
Q 34.1875 6.109375 38.703125 11.40625 
Q 43.21875 16.703125 43.21875 25.484375 
L 43.21875 27.484375 
z
M 52.203125 31.203125 
L 52.203125 0 
L 43.21875 0 
L 43.21875 8.296875 
Q 40.140625 3.328125 35.546875 0.953125 
Q 30.953125 -1.421875 24.3125 -1.421875 
Q 15.921875 -1.421875 10.953125 3.296875 
Q 6 8.015625 6 15.921875 
Q 6 25.140625 12.171875 29.828125 
Q 18.359375 34.515625 30.609375 34.515625 
L 43.21875 34.515625 
L 43.21875 35.40625 
Q 43.21875 41.609375 39.140625 45 
Q 35.0625 48.390625 27.6875 48.390625 
Q 23 48.390625 18.546875 47.265625 
Q 14.109375 46.140625 10.015625 43.890625 
L 10.015625 52.203125 
Q 14.9375 54.109375 19.578125 55.046875 
Q 24.21875 56 28.609375 56 
Q 40.484375 56 46.34375 49.84375 
Q 52.203125 43.703125 52.203125 31.203125 
z
" id="DejaVuSans-97"/>
      <path d="M 4.203125 54.6875 
L 13.1875 54.6875 
L 24.421875 12.015625 
L 35.59375 54.6875 
L 46.1875 54.6875 
L 57.421875 12.015625 
L 68.609375 54.6875 
L 77.59375 54.6875 
L 63.28125 0 
L 52.6875 0 
L 40.921875 44.828125 
L 29.109375 0 
L 18.5 0 
z
" id="DejaVuSans-119"/>
      <path id="DejaVuSans-32"/>
      <path d="M 19.671875 64.796875 
L 19.671875 8.109375 
L 31.59375 8.109375 
Q 46.6875 8.109375 53.6875 14.9375 
Q 60.6875 21.78125 60.6875 36.53125 
Q 60.6875 51.171875 53.6875 57.984375 
Q 46.6875 64.796875 31.59375 64.796875 
z
M 9.8125 72.90625 
L 30.078125 72.90625 
Q 51.265625 72.90625 61.171875 64.09375 
Q 71.09375 55.28125 71.09375 36.53125 
Q 71.09375 17.671875 61.125 8.828125 
Q 51.171875 0 30.078125 0 
L 9.8125 0 
z
" id="DejaVuSans-68"/>
      <path d="M 18.3125 70.21875 
L 18.3125 54.6875 
L 36.8125 54.6875 
L 36.8125 47.703125 
L 18.3125 47.703125 
L 18.3125 18.015625 
Q 18.3125 11.328125 20.140625 9.421875 
Q 21.96875 7.515625 27.59375 7.515625 
L 36.8125 7.515625 
L 36.8125 0 
L 27.59375 0 
Q 17.1875 0 13.234375 3.875 
Q 9.28125 7.765625 9.28125 18.015625 
L 9.28125 47.703125 
L 2.6875 47.703125 
L 2.6875 54.6875 
L 9.28125 54.6875 
L 9.28125 70.21875 
z
" id="DejaVuSans-116"/>
     </defs>
     <use xlink:href="#DejaVuSans-82"/>
     <use x="67.232422" xlink:href="#DejaVuSans-97"/>
     <use x="128.511719" xlink:href="#DejaVuSans-119"/>
     <use x="210.298828" xlink:href="#DejaVuSans-32"/>
     <use x="242.085938" xlink:href="#DejaVuSans-68"/>
     <use x="319.087891" xlink:href="#DejaVuSans-97"/>
     <use x="380.367188" xlink:href="#DejaVuSans-116"/>
     <use x="419.576172" xlink:href="#DejaVuSans-97"/>
    </g>
   </g>
   <g id="legend_1">
    <g id="patch_7">
     <path d="M 142 155.714375 
L 219.284375 155.714375 
Q 221.284375 155.714375 221.284375 153.714375 
L 221.284375 110.68 
Q 221.284375 108.68 219.284375 108.68 
L 142 108.68 
Q 140 108.68 140 110.68 
L 140 153.714375 
Q 140 155.714375 142 155.714375 
z
" style="fill:#ffffff;opacity:0.8;stroke:#cccccc;stroke-linejoin:miter;"/>
    </g>
    <g id="PathCollection_4">
     <g>
      <use style="fill:#ff0000;stroke:#ff0000;" x="154" xlink:href="#ma1329ff732" y="117.653437"/>
     </g>
    </g>
    <g id="text_21">
     <!-- label = 0 -->
     <g transform="translate(172 120.278437)scale(0.1 -0.1)">
      <defs>
       <path d="M 9.421875 75.984375 
L 18.40625 75.984375 
L 18.40625 0 
L 9.421875 0 
z
" id="DejaVuSans-108"/>
       <path d="M 48.6875 27.296875 
Q 48.6875 37.203125 44.609375 42.84375 
Q 40.53125 48.484375 33.40625 48.484375 
Q 26.265625 48.484375 22.1875 42.84375 
Q 18.109375 37.203125 18.109375 27.296875 
Q 18.109375 17.390625 22.1875 11.75 
Q 26.265625 6.109375 33.40625 6.109375 
Q 40.53125 6.109375 44.609375 11.75 
Q 48.6875 17.390625 48.6875 27.296875 
z
M 18.109375 46.390625 
Q 20.953125 51.265625 25.265625 53.625 
Q 29.59375 56 35.59375 56 
Q 45.5625 56 51.78125 48.09375 
Q 58.015625 40.1875 58.015625 27.296875 
Q 58.015625 14.40625 51.78125 6.484375 
Q 45.5625 -1.421875 35.59375 -1.421875 
Q 29.59375 -1.421875 25.265625 0.953125 
Q 20.953125 3.328125 18.109375 8.203125 
L 18.109375 0 
L 9.078125 0 
L 9.078125 75.984375 
L 18.109375 75.984375 
z
" id="DejaVuSans-98"/>
       <path d="M 56.203125 29.59375 
L 56.203125 25.203125 
L 14.890625 25.203125 
Q 15.484375 15.921875 20.484375 11.0625 
Q 25.484375 6.203125 34.421875 6.203125 
Q 39.59375 6.203125 44.453125 7.46875 
Q 49.3125 8.734375 54.109375 11.28125 
L 54.109375 2.78125 
Q 49.265625 0.734375 44.1875 -0.34375 
Q 39.109375 -1.421875 33.890625 -1.421875 
Q 20.796875 -1.421875 13.15625 6.1875 
Q 5.515625 13.8125 5.515625 26.8125 
Q 5.515625 40.234375 12.765625 48.109375 
Q 20.015625 56 32.328125 56 
Q 43.359375 56 49.78125 48.890625 
Q 56.203125 41.796875 56.203125 29.59375 
z
M 47.21875 32.234375 
Q 47.125 39.59375 43.09375 43.984375 
Q 39.0625 48.390625 32.421875 48.390625 
Q 24.90625 48.390625 20.390625 44.140625 
Q 15.875 39.890625 15.1875 32.171875 
z
" id="DejaVuSans-101"/>
       <path d="M 10.59375 45.40625 
L 73.1875 45.40625 
L 73.1875 37.203125 
L 10.59375 37.203125 
z
M 10.59375 25.484375 
L 73.1875 25.484375 
L 73.1875 17.1875 
L 10.59375 17.1875 
z
" id="DejaVuSans-61"/>
      </defs>
      <use xlink:href="#DejaVuSans-108"/>
      <use x="27.783203" xlink:href="#DejaVuSans-97"/>
      <use x="89.0625" xlink:href="#DejaVuSans-98"/>
      <use x="152.539062" xlink:href="#DejaVuSans-101"/>
      <use x="214.0625" xlink:href="#DejaVuSans-108"/>
      <use x="241.845703" xlink:href="#DejaVuSans-32"/>
      <use x="273.632812" xlink:href="#DejaVuSans-61"/>
      <use x="357.421875" xlink:href="#DejaVuSans-32"/>
      <use x="389.208984" xlink:href="#DejaVuSans-48"/>
     </g>
    </g>
    <g id="PathCollection_5">
     <g>
      <use style="fill:#0000ff;stroke:#0000ff;" x="154" xlink:href="#m6d486cebe1" y="132.331562"/>
     </g>
    </g>
    <g id="text_22">
     <!-- label = 1 -->
     <g transform="translate(172 134.956562)scale(0.1 -0.1)">
      <use xlink:href="#DejaVuSans-108"/>
      <use x="27.783203" xlink:href="#DejaVuSans-97"/>
      <use x="89.0625" xlink:href="#DejaVuSans-98"/>
      <use x="152.539062" xlink:href="#DejaVuSans-101"/>
      <use x="214.0625" xlink:href="#DejaVuSans-108"/>
      <use x="241.845703" xlink:href="#DejaVuSans-32"/>
      <use x="273.632812" xlink:href="#DejaVuSans-61"/>
      <use x="357.421875" xlink:href="#DejaVuSans-32"/>
      <use x="389.208984" xlink:href="#DejaVuSans-49"/>
     </g>
    </g>
    <g id="PathCollection_6">
     <g>
      <use style="fill:#008000;stroke:#008000;" x="154" xlink:href="#me83ec7b310" y="147.009687"/>
     </g>
    </g>
    <g id="text_23">
     <!-- label = 2 -->
     <g transform="translate(172 149.634687)scale(0.1 -0.1)">
      <use xlink:href="#DejaVuSans-108"/>
      <use x="27.783203" xlink:href="#DejaVuSans-97"/>
      <use x="89.0625" xlink:href="#DejaVuSans-98"/>
      <use x="152.539062" xlink:href="#DejaVuSans-101"/>
      <use x="214.0625" xlink:href="#DejaVuSans-108"/>
      <use x="241.845703" xlink:href="#DejaVuSans-32"/>
      <use x="273.632812" xlink:href="#DejaVuSans-61"/>
      <use x="357.421875" xlink:href="#DejaVuSans-32"/>
      <use x="389.208984" xlink:href="#DejaVuSans-50"/>
     </g>
    </g>
   </g>
  </g>
 </g>
 <defs>
  <clipPath id="p6e91e510f4">
   <rect height="665.28" width="837" x="135" y="103.68"/>
  </clipPath>
 </defs>
</svg>
