<?xml version="1.0" encoding="UTF-8" standalone="no"?>
<!DOCTYPE svg PUBLIC "-//W3C//DTD SVG 1.1//EN"
 "http://www.w3.org/Graphics/SVG/1.1/DTD/svg11.dtd">
<!-- Generated by graphviz version 2.44.1 (20200629.0846)
 -->
<!-- Pages: 1 -->
<svg width="1816pt" height="392pt"
 viewBox="0.00 0.00 1816.00 392.00" xmlns="http://www.w3.org/2000/svg" xmlns:xlink="http://www.w3.org/1999/xlink">
<g id="graph0" class="graph" transform="scale(1 1) rotate(0) translate(4 388)">
<polygon fill="white" stroke="transparent" points="-4,4 -4,-388 1812,-388 1812,4 -4,4"/>
<!-- root -->
<g id="node1" class="node">
<title>root</title>
<ellipse fill="none" stroke="black" cx="702" cy="-366" rx="41.69" ry="18"/>
<text text-anchor="middle" x="702" y="-362.3" font-family="Times New Roman,serif" font-size="14.00">f1 &lt; 124</text>
</g>
<!-- rootl -->
<g id="node2" class="node">
<title>rootl</title>
<ellipse fill="none" stroke="black" cx="506" cy="-279" rx="44.39" ry="18"/>
<text text-anchor="middle" x="506" y="-275.3" font-family="Times New Roman,serif" font-size="14.00">f5 &lt; 26.5</text>
</g>
<!-- root&#45;&gt;rootl -->
<g id="edge1" class="edge">
<title>root&#45;&gt;rootl</title>
<path fill="none" stroke="blue" d="M673.5,-352.64C639.44,-337.87 582.3,-313.09 544.38,-296.64"/>
<polygon fill="blue" stroke="blue" points="545.74,-293.42 535.17,-292.65 542.96,-299.84 545.74,-293.42"/>
<text text-anchor="middle" x="625.5" y="-318.8" font-family="Times New Roman,serif" font-size="14.00">yes</text>
</g>
<!-- rootr -->
<g id="node15" class="node">
<title>rootr</title>
<ellipse fill="none" stroke="black" cx="1031" cy="-279" rx="41.69" ry="18"/>
<text text-anchor="middle" x="1031" y="-275.3" font-family="Times New Roman,serif" font-size="14.00">f1 &lt; 155</text>
</g>
<!-- root&#45;&gt;rootr -->
<g id="edge14" class="edge">
<title>root&#45;&gt;rootr</title>
<path fill="none" stroke="red" d="M736.9,-355.98C796.99,-340.46 919.91,-308.7 986.22,-291.57"/>
<polygon fill="red" stroke="red" points="987.16,-294.94 995.97,-289.05 985.41,-288.16 987.16,-294.94"/>
<text text-anchor="middle" x="894.5" y="-318.8" font-family="Times New Roman,serif" font-size="14.00">no</text>
</g>
<!-- rootll -->
<g id="node3" class="node">
<title>rootll</title>
<ellipse fill="none" stroke="black" cx="185" cy="-192" rx="37.09" ry="18"/>
<text text-anchor="middle" x="185" y="-188.3" font-family="Times New Roman,serif" font-size="14.00">f0 &lt; 10</text>
</g>
<!-- rootl&#45;&gt;rootll -->
<g id="edge2" class="edge">
<title>rootl&#45;&gt;rootll</title>
<path fill="none" stroke="blue" d="M469.8,-268.41C409.85,-252.54 290.27,-220.88 226.81,-204.07"/>
<polygon fill="blue" stroke="blue" points="227.32,-200.59 216.76,-201.41 225.53,-207.35 227.32,-200.59"/>
<text text-anchor="middle" x="374.5" y="-231.8" font-family="Times New Roman,serif" font-size="14.00">yes</text>
</g>
<!-- rootlr -->
<g id="node8" class="node">
<title>rootlr</title>
<ellipse fill="none" stroke="black" cx="506" cy="-192" rx="44.39" ry="18"/>
<text text-anchor="middle" x="506" y="-188.3" font-family="Times New Roman,serif" font-size="14.00">f6 &lt; 0.64</text>
</g>
<!-- rootl&#45;&gt;rootlr -->
<g id="edge7" class="edge">
<title>rootl&#45;&gt;rootlr</title>
<path fill="none" stroke="red" d="M506,-260.8C506,-249.16 506,-233.55 506,-220.24"/>
<polygon fill="red" stroke="red" points="509.5,-220.18 506,-210.18 502.5,-220.18 509.5,-220.18"/>
<text text-anchor="middle" x="513.5" y="-231.8" font-family="Times New Roman,serif" font-size="14.00">no</text>
</g>
<!-- rootlll -->
<g id="node4" class="node">
<title>rootlll</title>
<polygon fill="none" stroke="black" points="130,-123 16,-123 16,-87 130,-87 130,-123"/>
<text text-anchor="middle" x="73" y="-101.3" font-family="Times New Roman,serif" font-size="14.00">leaf = &#45;0.6966269</text>
</g>
<!-- rootll&#45;&gt;rootlll -->
<g id="edge3" class="edge">
<title>rootll&#45;&gt;rootlll</title>
<path fill="none" stroke="blue" d="M165.75,-176.39C148.67,-163.43 123.44,-144.28 103.6,-129.22"/>
<polygon fill="blue" stroke="blue" points="105.55,-126.31 95.47,-123.05 101.32,-131.88 105.55,-126.31"/>
<text text-anchor="middle" x="145.5" y="-144.8" font-family="Times New Roman,serif" font-size="14.00">yes</text>
</g>
<!-- rootllr -->
<g id="node5" class="node">
<title>rootllr</title>
<ellipse fill="none" stroke="black" cx="185" cy="-105" rx="37.09" ry="18"/>
<text text-anchor="middle" x="185" y="-101.3" font-family="Times New Roman,serif" font-size="14.00">f7 &lt; 31</text>
</g>
<!-- rootll&#45;&gt;rootllr -->
<g id="edge4" class="edge">
<title>rootll&#45;&gt;rootllr</title>
<path fill="none" stroke="red" d="M185,-173.8C185,-162.16 185,-146.55 185,-133.24"/>
<polygon fill="red" stroke="red" points="188.5,-133.18 185,-123.18 181.5,-133.18 188.5,-133.18"/>
<text text-anchor="middle" x="192.5" y="-144.8" font-family="Times New Roman,serif" font-size="14.00">no</text>
</g>
<!-- rootllrl -->
<g id="node6" class="node">
<title>rootllrl</title>
<polygon fill="none" stroke="black" points="110,-36 0,-36 0,0 110,0 110,-36"/>
<text text-anchor="middle" x="55" y="-14.3" font-family="Times New Roman,serif" font-size="14.00">leaf = 0.2240359</text>
</g>
<!-- rootllr&#45;&gt;rootllrl -->
<g id="edge5" class="edge">
<title>rootllr&#45;&gt;rootllrl</title>
<path fill="none" stroke="blue" d="M163.82,-90.15C143.79,-77.06 113.36,-57.16 89.77,-41.74"/>
<polygon fill="blue" stroke="blue" points="91.39,-38.61 81.1,-36.07 87.56,-44.47 91.39,-38.61"/>
<text text-anchor="middle" x="137.5" y="-57.8" font-family="Times New Roman,serif" font-size="14.00">yes</text>
</g>
<!-- rootllrr -->
<g id="node7" class="node">
<title>rootllrr</title>
<polygon fill="none" stroke="black" points="242,-36 128,-36 128,0 242,0 242,-36"/>
<text text-anchor="middle" x="185" y="-14.3" font-family="Times New Roman,serif" font-size="14.00">leaf = &#45;0.3222912</text>
</g>
<!-- rootllr&#45;&gt;rootllrr -->
<g id="edge6" class="edge">
<title>rootllr&#45;&gt;rootllrr</title>
<path fill="none" stroke="red" d="M185,-86.8C185,-75.16 185,-59.55 185,-46.24"/>
<polygon fill="red" stroke="red" points="188.5,-46.18 185,-36.18 181.5,-46.18 188.5,-46.18"/>
<text text-anchor="middle" x="192.5" y="-57.8" font-family="Times New Roman,serif" font-size="14.00">no</text>
</g>
<!-- rootlrl -->
<g id="node9" class="node">
<title>rootlrl</title>
<ellipse fill="none" stroke="black" cx="449" cy="-105" rx="37.09" ry="18"/>
<text text-anchor="middle" x="449" y="-101.3" font-family="Times New Roman,serif" font-size="14.00">f4 &lt; 37</text>
</g>
<!-- rootlr&#45;&gt;rootlrl -->
<g id="edge8" class="edge">
<title>rootlr&#45;&gt;rootlrl</title>
<path fill="none" stroke="blue" d="M494.74,-174.21C486.49,-161.9 475.15,-145 465.83,-131.09"/>
<polygon fill="blue" stroke="blue" points="468.52,-128.83 460.04,-122.47 462.71,-132.72 468.52,-128.83"/>
<text text-anchor="middle" x="490.5" y="-144.8" font-family="Times New Roman,serif" font-size="14.00">yes</text>
</g>
<!-- rootlrr -->
<g id="node12" class="node">
<title>rootlrr</title>
<ellipse fill="none" stroke="black" cx="585" cy="-105" rx="32.49" ry="18"/>
<text text-anchor="middle" x="585" y="-101.3" font-family="Times New Roman,serif" font-size="14.00">f0 &lt; 7</text>
</g>
<!-- rootlr&#45;&gt;rootlrr -->
<g id="edge11" class="edge">
<title>rootlr&#45;&gt;rootlrr</title>
<path fill="none" stroke="red" d="M520.86,-175.01C532.93,-162.03 550.1,-143.55 563.65,-128.98"/>
<polygon fill="red" stroke="red" points="566.5,-131.05 570.74,-121.34 561.37,-126.29 566.5,-131.05"/>
<text text-anchor="middle" x="558.5" y="-144.8" font-family="Times New Roman,serif" font-size="14.00">no</text>
</g>
<!-- rootlrll -->
<g id="node10" class="node">
<title>rootlrll</title>
<polygon fill="none" stroke="black" points="374,-36 260,-36 260,0 374,0 374,-36"/>
<text text-anchor="middle" x="317" y="-14.3" font-family="Times New Roman,serif" font-size="14.00">leaf = &#45;0.2616136</text>
</g>
<!-- rootlrl&#45;&gt;rootlrll -->
<g id="edge9" class="edge">
<title>rootlrl&#45;&gt;rootlrll</title>
<path fill="none" stroke="blue" d="M427.5,-90.15C407.07,-77 375.99,-56.99 351.99,-41.53"/>
<polygon fill="blue" stroke="blue" points="353.81,-38.54 343.5,-36.07 350.02,-44.42 353.81,-38.54"/>
<text text-anchor="middle" x="400.5" y="-57.8" font-family="Times New Roman,serif" font-size="14.00">yes</text>
</g>
<!-- rootlrlr -->
<g id="node11" class="node">
<title>rootlrlr</title>
<polygon fill="none" stroke="black" points="506,-36 392,-36 392,0 506,0 506,-36"/>
<text text-anchor="middle" x="449" y="-14.3" font-family="Times New Roman,serif" font-size="14.00">leaf = &#45;0.5476363</text>
</g>
<!-- rootlrl&#45;&gt;rootlrlr -->
<g id="edge10" class="edge">
<title>rootlrl&#45;&gt;rootlrlr</title>
<path fill="none" stroke="red" d="M449,-86.8C449,-75.16 449,-59.55 449,-46.24"/>
<polygon fill="red" stroke="red" points="452.5,-46.18 449,-36.18 445.5,-46.18 452.5,-46.18"/>
<text text-anchor="middle" x="456.5" y="-57.8" font-family="Times New Roman,serif" font-size="14.00">no</text>
</g>
<!-- rootlrrl -->
<g id="node13" class="node">
<title>rootlrrl</title>
<polygon fill="none" stroke="black" points="645.5,-36 524.5,-36 524.5,0 645.5,0 645.5,-36"/>
<text text-anchor="middle" x="585" y="-14.3" font-family="Times New Roman,serif" font-size="14.00">leaf = &#45;0.09169822</text>
</g>
<!-- rootlrr&#45;&gt;rootlrrl -->
<g id="edge12" class="edge">
<title>rootlrr&#45;&gt;rootlrrl</title>
<path fill="none" stroke="blue" d="M585,-86.8C585,-75.16 585,-59.55 585,-46.24"/>
<polygon fill="blue" stroke="blue" points="588.5,-46.18 585,-36.18 581.5,-46.18 588.5,-46.18"/>
<text text-anchor="middle" x="594.5" y="-57.8" font-family="Times New Roman,serif" font-size="14.00">yes</text>
</g>
<!-- rootlrrr -->
<g id="node14" class="node">
<title>rootlrrr</title>
<polygon fill="none" stroke="black" points="774,-36 664,-36 664,0 774,0 774,-36"/>
<text text-anchor="middle" x="719" y="-14.3" font-family="Times New Roman,serif" font-size="14.00">leaf = 0.6646536</text>
</g>
<!-- rootlrr&#45;&gt;rootlrrr -->
<g id="edge13" class="edge">
<title>rootlrr&#45;&gt;rootlrrr</title>
<path fill="none" stroke="red" d="M605.64,-90.91C626.4,-77.74 658.79,-57.2 683.64,-41.43"/>
<polygon fill="red" stroke="red" points="685.51,-44.39 692.08,-36.07 681.76,-38.48 685.51,-44.39"/>
<text text-anchor="middle" x="668.5" y="-57.8" font-family="Times New Roman,serif" font-size="14.00">no</text>
</g>
<!-- rootrl -->
<g id="node16" class="node">
<title>rootrl</title>
<ellipse fill="none" stroke="black" cx="1031" cy="-192" rx="44.39" ry="18"/>
<text text-anchor="middle" x="1031" y="-188.3" font-family="Times New Roman,serif" font-size="14.00">f5 &lt; 26.4</text>
</g>
<!-- rootr&#45;&gt;rootrl -->
<g id="edge15" class="edge">
<title>rootr&#45;&gt;rootrl</title>
<path fill="none" stroke="blue" d="M1031,-260.8C1031,-249.16 1031,-233.55 1031,-220.24"/>
<polygon fill="blue" stroke="blue" points="1034.5,-220.18 1031,-210.18 1027.5,-220.18 1034.5,-220.18"/>
<text text-anchor="middle" x="1040.5" y="-231.8" font-family="Times New Roman,serif" font-size="14.00">yes</text>
</g>
<!-- rootrr -->
<g id="node23" class="node">
<title>rootrr</title>
<ellipse fill="none" stroke="black" cx="1416" cy="-192" rx="37.09" ry="18"/>
<text text-anchor="middle" x="1416" y="-188.3" font-family="Times New Roman,serif" font-size="14.00">f7 &lt; 54</text>
</g>
<!-- rootr&#45;&gt;rootrr -->
<g id="edge22" class="edge">
<title>rootr&#45;&gt;rootrr</title>
<path fill="none" stroke="red" d="M1067.22,-270C1138.52,-254.26 1296.77,-219.32 1373.13,-202.46"/>
<polygon fill="red" stroke="red" points="1373.9,-205.88 1382.91,-200.31 1372.39,-199.04 1373.9,-205.88"/>
<text text-anchor="middle" x="1254.5" y="-231.8" font-family="Times New Roman,serif" font-size="14.00">no</text>
</g>
<!-- rootrll -->
<g id="node17" class="node">
<title>rootrll</title>
<ellipse fill="none" stroke="black" cx="977" cy="-105" rx="37.09" ry="18"/>
<text text-anchor="middle" x="977" y="-101.3" font-family="Times New Roman,serif" font-size="14.00">f2 &lt; 58</text>
</g>
<!-- rootrl&#45;&gt;rootrll -->
<g id="edge16" class="edge">
<title>rootrl&#45;&gt;rootrll</title>
<path fill="none" stroke="blue" d="M1020.33,-174.21C1012.52,-161.9 1001.77,-145 992.94,-131.09"/>
<polygon fill="blue" stroke="blue" points="995.78,-129.03 987.46,-122.47 989.87,-132.79 995.78,-129.03"/>
<text text-anchor="middle" x="1017.5" y="-144.8" font-family="Times New Roman,serif" font-size="14.00">yes</text>
</g>
<!-- rootrlr -->
<g id="node20" class="node">
<title>rootrlr</title>
<ellipse fill="none" stroke="black" cx="1106" cy="-105" rx="44.39" ry="18"/>
<text text-anchor="middle" x="1106" y="-101.3" font-family="Times New Roman,serif" font-size="14.00">f5 &lt; 41.2</text>
</g>
<!-- rootrl&#45;&gt;rootrlr -->
<g id="edge19" class="edge">
<title>rootrl&#45;&gt;rootrlr</title>
<path fill="none" stroke="red" d="M1045.46,-174.61C1056.67,-161.91 1072.35,-144.13 1084.95,-129.86"/>
<polygon fill="red" stroke="red" points="1087.59,-132.15 1091.58,-122.34 1082.34,-127.52 1087.59,-132.15"/>
<text text-anchor="middle" x="1080.5" y="-144.8" font-family="Times New Roman,serif" font-size="14.00">no</text>
</g>
<!-- rootrlll -->
<g id="node18" class="node">
<title>rootrlll</title>
<polygon fill="none" stroke="black" points="902,-36 792,-36 792,0 902,0 902,-36"/>
<text text-anchor="middle" x="847" y="-14.3" font-family="Times New Roman,serif" font-size="14.00">leaf = 0.2770438</text>
</g>
<!-- rootrll&#45;&gt;rootrlll -->
<g id="edge17" class="edge">
<title>rootrll&#45;&gt;rootrlll</title>
<path fill="none" stroke="blue" d="M955.82,-90.15C935.79,-77.06 905.36,-57.16 881.77,-41.74"/>
<polygon fill="blue" stroke="blue" points="883.39,-38.61 873.1,-36.07 879.56,-44.47 883.39,-38.61"/>
<text text-anchor="middle" x="929.5" y="-57.8" font-family="Times New Roman,serif" font-size="14.00">yes</text>
</g>
<!-- rootrllr -->
<g id="node19" class="node">
<title>rootrllr</title>
<polygon fill="none" stroke="black" points="1034,-36 920,-36 920,0 1034,0 1034,-36"/>
<text text-anchor="middle" x="977" y="-14.3" font-family="Times New Roman,serif" font-size="14.00">leaf = &#45;0.5824286</text>
</g>
<!-- rootrll&#45;&gt;rootrllr -->
<g id="edge18" class="edge">
<title>rootrll&#45;&gt;rootrllr</title>
<path fill="none" stroke="red" d="M977,-86.8C977,-75.16 977,-59.55 977,-46.24"/>
<polygon fill="red" stroke="red" points="980.5,-46.18 977,-36.18 973.5,-46.18 980.5,-46.18"/>
<text text-anchor="middle" x="984.5" y="-57.8" font-family="Times New Roman,serif" font-size="14.00">no</text>
</g>
<!-- rootrlrl -->
<g id="node21" class="node">
<title>rootrlrl</title>
<polygon fill="none" stroke="black" points="1159.5,-36 1052.5,-36 1052.5,0 1159.5,0 1159.5,-36"/>
<text text-anchor="middle" x="1106" y="-14.3" font-family="Times New Roman,serif" font-size="14.00">leaf = &#45;0.037295</text>
</g>
<!-- rootrlr&#45;&gt;rootrlrl -->
<g id="edge20" class="edge">
<title>rootrlr&#45;&gt;rootrlrl</title>
<path fill="none" stroke="blue" d="M1106,-86.8C1106,-75.16 1106,-59.55 1106,-46.24"/>
<polygon fill="blue" stroke="blue" points="1109.5,-46.18 1106,-36.18 1102.5,-46.18 1109.5,-46.18"/>
<text text-anchor="middle" x="1115.5" y="-57.8" font-family="Times New Roman,serif" font-size="14.00">yes</text>
</g>
<!-- rootrlrr -->
<g id="node22" class="node">
<title>rootrlrr</title>
<polygon fill="none" stroke="black" points="1288,-36 1178,-36 1178,0 1288,0 1288,-36"/>
<text text-anchor="middle" x="1233" y="-14.3" font-family="Times New Roman,serif" font-size="14.00">leaf = 0.4593405</text>
</g>
<!-- rootrlr&#45;&gt;rootrlrr -->
<g id="edge21" class="edge">
<title>rootrlr&#45;&gt;rootrlrr</title>
<path fill="none" stroke="red" d="M1128.12,-89.19C1147.57,-76.18 1176.19,-57.02 1198.62,-42.01"/>
<polygon fill="red" stroke="red" points="1200.83,-44.74 1207.19,-36.27 1196.94,-38.92 1200.83,-44.74"/>
<text text-anchor="middle" x="1185.5" y="-57.8" font-family="Times New Roman,serif" font-size="14.00">no</text>
</g>
<!-- rootrrl -->
<g id="node24" class="node">
<title>rootrrl</title>
<ellipse fill="none" stroke="black" cx="1416" cy="-105" rx="41.69" ry="18"/>
<text text-anchor="middle" x="1416" y="-101.3" font-family="Times New Roman,serif" font-size="14.00">f4 &lt; 680</text>
</g>
<!-- rootrr&#45;&gt;rootrrl -->
<g id="edge23" class="edge">
<title>rootrr&#45;&gt;rootrrl</title>
<path fill="none" stroke="blue" d="M1416,-173.8C1416,-162.16 1416,-146.55 1416,-133.24"/>
<polygon fill="blue" stroke="blue" points="1419.5,-133.18 1416,-123.18 1412.5,-133.18 1419.5,-133.18"/>
<text text-anchor="middle" x="1425.5" y="-144.8" font-family="Times New Roman,serif" font-size="14.00">yes</text>
</g>
<!-- rootrrr -->
<g id="node27" class="node">
<title>rootrrr</title>
<ellipse fill="none" stroke="black" cx="1623" cy="-105" rx="41.69" ry="18"/>
<text text-anchor="middle" x="1623" y="-101.3" font-family="Times New Roman,serif" font-size="14.00">f1 &lt; 181</text>
</g>
<!-- rootrr&#45;&gt;rootrrr -->
<g id="edge26" class="edge">
<title>rootrr&#45;&gt;rootrrr</title>
<path fill="none" stroke="red" d="M1443.49,-179.71C1479.63,-164.87 1543.34,-138.71 1584.33,-121.88"/>
<polygon fill="red" stroke="red" points="1585.81,-125.06 1593.73,-118.02 1583.15,-118.58 1585.81,-125.06"/>
<text text-anchor="middle" x="1539.5" y="-144.8" font-family="Times New Roman,serif" font-size="14.00">no</text>
</g>
<!-- rootrrll -->
<g id="node25" class="node">
<title>rootrrll</title>
<polygon fill="none" stroke="black" points="1416,-36 1306,-36 1306,0 1416,0 1416,-36"/>
<text text-anchor="middle" x="1361" y="-14.3" font-family="Times New Roman,serif" font-size="14.00">leaf = 0.5090756</text>
</g>
<!-- rootrrl&#45;&gt;rootrrll -->
<g id="edge24" class="edge">
<title>rootrrl&#45;&gt;rootrrll</title>
<path fill="none" stroke="blue" d="M1405.13,-87.21C1397.28,-75.06 1386.51,-58.43 1377.59,-44.63"/>
<polygon fill="blue" stroke="blue" points="1380.4,-42.54 1372.03,-36.05 1374.53,-46.35 1380.4,-42.54"/>
<text text-anchor="middle" x="1401.5" y="-57.8" font-family="Times New Roman,serif" font-size="14.00">yes</text>
</g>
<!-- rootrrlr -->
<g id="node26" class="node">
<title>rootrrlr</title>
<polygon fill="none" stroke="black" points="1548,-36 1434,-36 1434,0 1548,0 1548,-36"/>
<text text-anchor="middle" x="1491" y="-14.3" font-family="Times New Roman,serif" font-size="14.00">leaf = &#45;0.3257169</text>
</g>
<!-- rootrrl&#45;&gt;rootrrlr -->
<g id="edge25" class="edge">
<title>rootrrl&#45;&gt;rootrrlr</title>
<path fill="none" stroke="red" d="M1430.11,-88.01C1441.13,-75.51 1456.65,-57.92 1469.27,-43.63"/>
<polygon fill="red" stroke="red" points="1471.94,-45.9 1475.93,-36.08 1466.69,-41.27 1471.94,-45.9"/>
<text text-anchor="middle" x="1465.5" y="-57.8" font-family="Times New Roman,serif" font-size="14.00">no</text>
</g>
<!-- rootrrrl -->
<g id="node28" class="node">
<title>rootrrrl</title>
<polygon fill="none" stroke="black" points="1680,-36 1566,-36 1566,0 1680,0 1680,-36"/>
<text text-anchor="middle" x="1623" y="-14.3" font-family="Times New Roman,serif" font-size="14.00">leaf = &#45;0.4186738</text>
</g>
<!-- rootrrr&#45;&gt;rootrrrl -->
<g id="edge27" class="edge">
<title>rootrrr&#45;&gt;rootrrrl</title>
<path fill="none" stroke="blue" d="M1623,-86.8C1623,-75.16 1623,-59.55 1623,-46.24"/>
<polygon fill="blue" stroke="blue" points="1626.5,-46.18 1623,-36.18 1619.5,-46.18 1626.5,-46.18"/>
<text text-anchor="middle" x="1632.5" y="-57.8" font-family="Times New Roman,serif" font-size="14.00">yes</text>
</g>
<!-- rootrrrr -->
<g id="node29" class="node">
<title>rootrrrr</title>
<polygon fill="none" stroke="black" points="1808,-36 1698,-36 1698,0 1808,0 1808,-36"/>
<text text-anchor="middle" x="1753" y="-14.3" font-family="Times New Roman,serif" font-size="14.00">leaf = 0.2955446</text>
</g>
<!-- rootrrr&#45;&gt;rootrrrr -->
<g id="edge28" class="edge">
<title>rootrrr&#45;&gt;rootrrrr</title>
<path fill="none" stroke="red" d="M1645.05,-89.58C1665.09,-76.48 1694.99,-56.93 1718.25,-41.72"/>
<polygon fill="red" stroke="red" points="1720.35,-44.53 1726.8,-36.13 1716.52,-38.67 1720.35,-44.53"/>
<text text-anchor="middle" x="1703.5" y="-57.8" font-family="Times New Roman,serif" font-size="14.00">no</text>
</g>
</g>
</svg>
