<?xml version="1.0" encoding="UTF-8" standalone="no"?>
<!DOCTYPE svg PUBLIC "-//W3C//DTD SVG 1.1//EN"
 "http://www.w3.org/Graphics/SVG/1.1/DTD/svg11.dtd">
<!-- Generated by graphviz version 2.44.1 (20200629.0846)
 -->
<!-- Pages: 1 -->
<svg width="1799pt" height="392pt"
 viewBox="0.00 0.00 1799.00 392.00" xmlns="http://www.w3.org/2000/svg" xmlns:xlink="http://www.w3.org/1999/xlink">
<g id="graph0" class="graph" transform="scale(1 1) rotate(0) translate(4 388)">
<polygon fill="white" stroke="transparent" points="-4,4 -4,-388 1795,-388 1795,4 -4,4"/>
<!-- root -->
<g id="node1" class="node">
<title>root</title>
<ellipse fill="none" stroke="black" cx="870" cy="-366" rx="41.69" ry="18"/>
<text text-anchor="middle" x="870" y="-362.3" font-family="Times New Roman,serif" font-size="14.00">f1 &lt; 104</text>
</g>
<!-- rootl -->
<g id="node2" class="node">
<title>rootl</title>
<ellipse fill="none" stroke="black" cx="677" cy="-279" rx="48.19" ry="18"/>
<text text-anchor="middle" x="677" y="-275.3" font-family="Times New Roman,serif" font-size="14.00">f6 &lt; 0.867</text>
</g>
<!-- root&#45;&gt;rootl -->
<g id="edge1" class="edge">
<title>root&#45;&gt;rootl</title>
<path fill="none" stroke="blue" d="M841.94,-352.64C808.92,-338.1 753.89,-313.86 716.56,-297.42"/>
<polygon fill="blue" stroke="blue" points="717.57,-294.04 707,-293.21 714.75,-300.45 717.57,-294.04"/>
<text text-anchor="middle" x="795.5" y="-318.8" font-family="Times New Roman,serif" font-size="14.00">yes</text>
</g>
<!-- rootr -->
<g id="node15" class="node">
<title>rootr</title>
<ellipse fill="none" stroke="black" cx="1020" cy="-279" rx="44.39" ry="18"/>
<text text-anchor="middle" x="1020" y="-275.3" font-family="Times New Roman,serif" font-size="14.00">f5 &lt; 26.4</text>
</g>
<!-- root&#45;&gt;rootr -->
<g id="edge14" class="edge">
<title>root&#45;&gt;rootr</title>
<path fill="none" stroke="red" d="M894.43,-351.15C919.42,-337 958.42,-314.89 986.33,-299.08"/>
<polygon fill="red" stroke="red" points="988.35,-301.96 995.33,-293.98 984.9,-295.87 988.35,-301.96"/>
<text text-anchor="middle" x="961.5" y="-318.8" font-family="Times New Roman,serif" font-size="14.00">no</text>
</g>
<!-- rootll -->
<g id="node3" class="node">
<title>rootll</title>
<ellipse fill="none" stroke="black" cx="387" cy="-192" rx="37.09" ry="18"/>
<text text-anchor="middle" x="387" y="-188.3" font-family="Times New Roman,serif" font-size="14.00">f0 &lt; 12</text>
</g>
<!-- rootl&#45;&gt;rootll -->
<g id="edge2" class="edge">
<title>rootl&#45;&gt;rootll</title>
<path fill="none" stroke="blue" d="M640.27,-267.23C585.92,-251.3 484.43,-221.56 427.82,-204.96"/>
<polygon fill="blue" stroke="blue" points="428.71,-201.58 418.13,-202.12 426.74,-208.29 428.71,-201.58"/>
<text text-anchor="middle" x="559.5" y="-231.8" font-family="Times New Roman,serif" font-size="14.00">yes</text>
</g>
<!-- rootlr -->
<g id="node10" class="node">
<title>rootlr</title>
<ellipse fill="none" stroke="black" cx="677" cy="-192" rx="32.49" ry="18"/>
<text text-anchor="middle" x="677" y="-188.3" font-family="Times New Roman,serif" font-size="14.00">f0 &lt; 5</text>
</g>
<!-- rootl&#45;&gt;rootlr -->
<g id="edge9" class="edge">
<title>rootl&#45;&gt;rootlr</title>
<path fill="none" stroke="red" d="M677,-260.8C677,-249.16 677,-233.55 677,-220.24"/>
<polygon fill="red" stroke="red" points="680.5,-220.18 677,-210.18 673.5,-220.18 680.5,-220.18"/>
<text text-anchor="middle" x="684.5" y="-231.8" font-family="Times New Roman,serif" font-size="14.00">no</text>
</g>
<!-- rootlll -->
<g id="node4" class="node">
<title>rootlll</title>
<ellipse fill="none" stroke="black" cx="182" cy="-105" rx="37.09" ry="18"/>
<text text-anchor="middle" x="182" y="-101.3" font-family="Times New Roman,serif" font-size="14.00">f1 &lt; 56</text>
</g>
<!-- rootll&#45;&gt;rootlll -->
<g id="edge3" class="edge">
<title>rootll&#45;&gt;rootlll</title>
<path fill="none" stroke="blue" d="M359.78,-179.71C323.48,-164.66 259.11,-137.97 218.59,-121.17"/>
<polygon fill="blue" stroke="blue" points="219.91,-117.93 209.34,-117.33 217.23,-124.4 219.91,-117.93"/>
<text text-anchor="middle" x="306.5" y="-144.8" font-family="Times New Roman,serif" font-size="14.00">yes</text>
</g>
<!-- rootllr -->
<g id="node7" class="node">
<title>rootllr</title>
<ellipse fill="none" stroke="black" cx="387" cy="-105" rx="37.09" ry="18"/>
<text text-anchor="middle" x="387" y="-101.3" font-family="Times New Roman,serif" font-size="14.00">f7 &lt; 46</text>
</g>
<!-- rootll&#45;&gt;rootllr -->
<g id="edge6" class="edge">
<title>rootll&#45;&gt;rootllr</title>
<path fill="none" stroke="red" d="M387,-173.8C387,-162.16 387,-146.55 387,-133.24"/>
<polygon fill="red" stroke="red" points="390.5,-133.18 387,-123.18 383.5,-133.18 390.5,-133.18"/>
<text text-anchor="middle" x="394.5" y="-144.8" font-family="Times New Roman,serif" font-size="14.00">no</text>
</g>
<!-- rootllll -->
<g id="node5" class="node">
<title>rootllll</title>
<polygon fill="none" stroke="black" points="110,-36 0,-36 0,0 110,0 110,-36"/>
<text text-anchor="middle" x="55" y="-14.3" font-family="Times New Roman,serif" font-size="14.00">leaf = 0.2083082</text>
</g>
<!-- rootlll&#45;&gt;rootllll -->
<g id="edge4" class="edge">
<title>rootlll&#45;&gt;rootllll</title>
<path fill="none" stroke="blue" d="M161.03,-89.96C141.54,-76.92 112.15,-57.25 89.26,-41.93"/>
<polygon fill="blue" stroke="blue" points="91.09,-38.94 80.83,-36.29 87.2,-44.76 91.09,-38.94"/>
<text text-anchor="middle" x="136.5" y="-57.8" font-family="Times New Roman,serif" font-size="14.00">yes</text>
</g>
<!-- rootlllr -->
<g id="node6" class="node">
<title>rootlllr</title>
<polygon fill="none" stroke="black" points="235.5,-36 128.5,-36 128.5,0 235.5,0 235.5,-36"/>
<text text-anchor="middle" x="182" y="-14.3" font-family="Times New Roman,serif" font-size="14.00">leaf = &#45;0.498538</text>
</g>
<!-- rootlll&#45;&gt;rootlllr -->
<g id="edge5" class="edge">
<title>rootlll&#45;&gt;rootlllr</title>
<path fill="none" stroke="red" d="M182,-86.8C182,-75.16 182,-59.55 182,-46.24"/>
<polygon fill="red" stroke="red" points="185.5,-46.18 182,-36.18 178.5,-46.18 185.5,-46.18"/>
<text text-anchor="middle" x="189.5" y="-57.8" font-family="Times New Roman,serif" font-size="14.00">no</text>
</g>
<!-- rootllrl -->
<g id="node8" class="node">
<title>rootllrl</title>
<polygon fill="none" stroke="black" points="368,-36 254,-36 254,0 368,0 368,-36"/>
<text text-anchor="middle" x="311" y="-14.3" font-family="Times New Roman,serif" font-size="14.00">leaf = &#45;0.1118142</text>
</g>
<!-- rootllr&#45;&gt;rootllrl -->
<g id="edge7" class="edge">
<title>rootllr&#45;&gt;rootllrl</title>
<path fill="none" stroke="blue" d="M372.7,-88.01C361.53,-75.51 345.8,-57.92 333.02,-43.63"/>
<polygon fill="blue" stroke="blue" points="335.55,-41.2 326.27,-36.08 330.33,-45.87 335.55,-41.2"/>
<text text-anchor="middle" x="363.5" y="-57.8" font-family="Times New Roman,serif" font-size="14.00">yes</text>
</g>
<!-- rootllrr -->
<g id="node9" class="node">
<title>rootllrr</title>
<polygon fill="none" stroke="black" points="496,-36 386,-36 386,0 496,0 496,-36"/>
<text text-anchor="middle" x="441" y="-14.3" font-family="Times New Roman,serif" font-size="14.00">leaf = 0.3143839</text>
</g>
<!-- rootllr&#45;&gt;rootllrr -->
<g id="edge8" class="edge">
<title>rootllr&#45;&gt;rootllrr</title>
<path fill="none" stroke="red" d="M397.41,-87.61C405.1,-75.5 415.73,-58.77 424.57,-44.87"/>
<polygon fill="red" stroke="red" points="427.66,-46.53 430.06,-36.21 421.75,-42.78 427.66,-46.53"/>
<text text-anchor="middle" x="425.5" y="-57.8" font-family="Times New Roman,serif" font-size="14.00">no</text>
</g>
<!-- rootlrl -->
<g id="node11" class="node">
<title>rootlrl</title>
<ellipse fill="none" stroke="black" cx="612" cy="-105" rx="48.19" ry="18"/>
<text text-anchor="middle" x="612" y="-101.3" font-family="Times New Roman,serif" font-size="14.00">f6 &lt; 0.917</text>
</g>
<!-- rootlr&#45;&gt;rootlrl -->
<g id="edge10" class="edge">
<title>rootlr&#45;&gt;rootlrl</title>
<path fill="none" stroke="blue" d="M664.77,-175.01C655.18,-162.47 641.67,-144.8 630.72,-130.48"/>
<polygon fill="blue" stroke="blue" points="633.47,-128.31 624.61,-122.5 627.91,-132.57 633.47,-128.31"/>
<text text-anchor="middle" x="658.5" y="-144.8" font-family="Times New Roman,serif" font-size="14.00">yes</text>
</g>
<!-- rootlrr -->
<g id="node14" class="node">
<title>rootlrr</title>
<polygon fill="none" stroke="black" points="788,-123 678,-123 678,-87 788,-87 788,-123"/>
<text text-anchor="middle" x="733" y="-101.3" font-family="Times New Roman,serif" font-size="14.00">leaf = 0.5134755</text>
</g>
<!-- rootlr&#45;&gt;rootlrr -->
<g id="edge13" class="edge">
<title>rootlr&#45;&gt;rootlrr</title>
<path fill="none" stroke="red" d="M687.8,-174.61C695.78,-162.5 706.8,-145.77 715.96,-131.87"/>
<polygon fill="red" stroke="red" points="719.08,-133.49 721.66,-123.21 713.23,-129.64 719.08,-133.49"/>
<text text-anchor="middle" x="716.5" y="-144.8" font-family="Times New Roman,serif" font-size="14.00">no</text>
</g>
<!-- rootlrll -->
<g id="node12" class="node">
<title>rootlrll</title>
<polygon fill="none" stroke="black" points="624,-36 514,-36 514,0 624,0 624,-36"/>
<text text-anchor="middle" x="569" y="-14.3" font-family="Times New Roman,serif" font-size="14.00">leaf = 0.3002075</text>
</g>
<!-- rootlrl&#45;&gt;rootlrll -->
<g id="edge11" class="edge">
<title>rootlrl&#45;&gt;rootlrll</title>
<path fill="none" stroke="blue" d="M603.5,-87.21C597.42,-75.18 589.11,-58.75 582.17,-45.03"/>
<polygon fill="blue" stroke="blue" points="585.26,-43.39 577.62,-36.05 579.02,-46.55 585.26,-43.39"/>
<text text-anchor="middle" x="603.5" y="-57.8" font-family="Times New Roman,serif" font-size="14.00">yes</text>
</g>
<!-- rootlrlr -->
<g id="node13" class="node">
<title>rootlrlr</title>
<polygon fill="none" stroke="black" points="756,-36 642,-36 642,0 756,0 756,-36"/>
<text text-anchor="middle" x="699" y="-14.3" font-family="Times New Roman,serif" font-size="14.00">leaf = &#45;0.3385286</text>
</g>
<!-- rootlrl&#45;&gt;rootlrlr -->
<g id="edge12" class="edge">
<title>rootlrl&#45;&gt;rootlrlr</title>
<path fill="none" stroke="red" d="M628.36,-88.01C641.27,-75.4 659.49,-57.6 674.19,-43.23"/>
<polygon fill="red" stroke="red" points="676.81,-45.57 681.52,-36.08 671.92,-40.57 676.81,-45.57"/>
<text text-anchor="middle" x="668.5" y="-57.8" font-family="Times New Roman,serif" font-size="14.00">no</text>
</g>
<!-- rootrl -->
<g id="node16" class="node">
<title>rootrl</title>
<ellipse fill="none" stroke="black" cx="1020" cy="-192" rx="41.69" ry="18"/>
<text text-anchor="middle" x="1020" y="-188.3" font-family="Times New Roman,serif" font-size="14.00">f1 &lt; 161</text>
</g>
<!-- rootr&#45;&gt;rootrl -->
<g id="edge15" class="edge">
<title>rootr&#45;&gt;rootrl</title>
<path fill="none" stroke="blue" d="M1020,-260.8C1020,-249.16 1020,-233.55 1020,-220.24"/>
<polygon fill="blue" stroke="blue" points="1023.5,-220.18 1020,-210.18 1016.5,-220.18 1023.5,-220.18"/>
<text text-anchor="middle" x="1029.5" y="-231.8" font-family="Times New Roman,serif" font-size="14.00">yes</text>
</g>
<!-- rootrr -->
<g id="node23" class="node">
<title>rootrr</title>
<ellipse fill="none" stroke="black" cx="1403" cy="-192" rx="32.49" ry="18"/>
<text text-anchor="middle" x="1403" y="-188.3" font-family="Times New Roman,serif" font-size="14.00">f0 &lt; 7</text>
</g>
<!-- rootr&#45;&gt;rootrr -->
<g id="edge22" class="edge">
<title>rootr&#45;&gt;rootrr</title>
<path fill="none" stroke="red" d="M1057.77,-269.62C1130.5,-253.48 1289.33,-218.23 1363.44,-201.78"/>
<polygon fill="red" stroke="red" points="1364.32,-205.17 1373.32,-199.59 1362.8,-198.34 1364.32,-205.17"/>
<text text-anchor="middle" x="1242.5" y="-231.8" font-family="Times New Roman,serif" font-size="14.00">no</text>
</g>
<!-- rootrll -->
<g id="node17" class="node">
<title>rootrll</title>
<ellipse fill="none" stroke="black" cx="956" cy="-105" rx="44.39" ry="18"/>
<text text-anchor="middle" x="956" y="-101.3" font-family="Times New Roman,serif" font-size="14.00">f5 &lt; 19.6</text>
</g>
<!-- rootrl&#45;&gt;rootrll -->
<g id="edge16" class="edge">
<title>rootrl&#45;&gt;rootrll</title>
<path fill="none" stroke="blue" d="M1007.66,-174.61C998.28,-162.15 985.21,-144.79 974.56,-130.65"/>
<polygon fill="blue" stroke="blue" points="977.11,-128.22 968.3,-122.34 971.52,-132.43 977.11,-128.22"/>
<text text-anchor="middle" x="1001.5" y="-144.8" font-family="Times New Roman,serif" font-size="14.00">yes</text>
</g>
<!-- rootrlr -->
<g id="node20" class="node">
<title>rootrlr</title>
<ellipse fill="none" stroke="black" cx="1085" cy="-105" rx="37.09" ry="18"/>
<text text-anchor="middle" x="1085" y="-101.3" font-family="Times New Roman,serif" font-size="14.00">f7 &lt; 32</text>
</g>
<!-- rootrl&#45;&gt;rootrlr -->
<g id="edge19" class="edge">
<title>rootrl&#45;&gt;rootrlr</title>
<path fill="none" stroke="red" d="M1032.53,-174.61C1042.13,-162.07 1055.51,-144.57 1066.36,-130.38"/>
<polygon fill="red" stroke="red" points="1069.43,-132.12 1072.73,-122.05 1063.87,-127.87 1069.43,-132.12"/>
<text text-anchor="middle" x="1064.5" y="-144.8" font-family="Times New Roman,serif" font-size="14.00">no</text>
</g>
<!-- rootrlll -->
<g id="node18" class="node">
<title>rootrlll</title>
<polygon fill="none" stroke="black" points="884,-36 774,-36 774,0 884,0 884,-36"/>
<text text-anchor="middle" x="829" y="-14.3" font-family="Times New Roman,serif" font-size="14.00">leaf = 0.1659627</text>
</g>
<!-- rootrll&#45;&gt;rootrlll -->
<g id="edge17" class="edge">
<title>rootrll&#45;&gt;rootrlll</title>
<path fill="none" stroke="blue" d="M933.88,-89.19C914.43,-76.18 885.81,-57.02 863.38,-42.01"/>
<polygon fill="blue" stroke="blue" points="865.06,-38.92 854.81,-36.27 861.17,-44.74 865.06,-38.92"/>
<text text-anchor="middle" x="910.5" y="-57.8" font-family="Times New Roman,serif" font-size="14.00">yes</text>
</g>
<!-- rootrllr -->
<g id="node19" class="node">
<title>rootrllr</title>
<polygon fill="none" stroke="black" points="1009.5,-36 902.5,-36 902.5,0 1009.5,0 1009.5,-36"/>
<text text-anchor="middle" x="956" y="-14.3" font-family="Times New Roman,serif" font-size="14.00">leaf = &#45;0.508648</text>
</g>
<!-- rootrll&#45;&gt;rootrllr -->
<g id="edge18" class="edge">
<title>rootrll&#45;&gt;rootrllr</title>
<path fill="none" stroke="red" d="M956,-86.8C956,-75.16 956,-59.55 956,-46.24"/>
<polygon fill="red" stroke="red" points="959.5,-46.18 956,-36.18 952.5,-46.18 959.5,-46.18"/>
<text text-anchor="middle" x="963.5" y="-57.8" font-family="Times New Roman,serif" font-size="14.00">no</text>
</g>
<!-- rootrlrl -->
<g id="node21" class="node">
<title>rootrlrl</title>
<polygon fill="none" stroke="black" points="1142,-36 1028,-36 1028,0 1142,0 1142,-36"/>
<text text-anchor="middle" x="1085" y="-14.3" font-family="Times New Roman,serif" font-size="14.00">leaf = &#45;0.4497213</text>
</g>
<!-- rootrlr&#45;&gt;rootrlrl -->
<g id="edge20" class="edge">
<title>rootrlr&#45;&gt;rootrlrl</title>
<path fill="none" stroke="blue" d="M1085,-86.8C1085,-75.16 1085,-59.55 1085,-46.24"/>
<polygon fill="blue" stroke="blue" points="1088.5,-46.18 1085,-36.18 1081.5,-46.18 1088.5,-46.18"/>
<text text-anchor="middle" x="1094.5" y="-57.8" font-family="Times New Roman,serif" font-size="14.00">yes</text>
</g>
<!-- rootrlrr -->
<g id="node22" class="node">
<title>rootrlrr</title>
<polygon fill="none" stroke="black" points="1270,-36 1160,-36 1160,0 1270,0 1270,-36"/>
<text text-anchor="middle" x="1215" y="-14.3" font-family="Times New Roman,serif" font-size="14.00">leaf = 0.2855737</text>
</g>
<!-- rootrlr&#45;&gt;rootrlrr -->
<g id="edge21" class="edge">
<title>rootrlr&#45;&gt;rootrlrr</title>
<path fill="none" stroke="red" d="M1106.18,-90.15C1126.21,-77.06 1156.64,-57.16 1180.23,-41.74"/>
<polygon fill="red" stroke="red" points="1182.44,-44.47 1188.9,-36.07 1178.61,-38.61 1182.44,-44.47"/>
<text text-anchor="middle" x="1165.5" y="-57.8" font-family="Times New Roman,serif" font-size="14.00">no</text>
</g>
<!-- rootrrl -->
<g id="node24" class="node">
<title>rootrrl</title>
<ellipse fill="none" stroke="black" cx="1403" cy="-105" rx="41.69" ry="18"/>
<text text-anchor="middle" x="1403" y="-101.3" font-family="Times New Roman,serif" font-size="14.00">f1 &lt; 167</text>
</g>
<!-- rootrr&#45;&gt;rootrrl -->
<g id="edge23" class="edge">
<title>rootrr&#45;&gt;rootrrl</title>
<path fill="none" stroke="blue" d="M1403,-173.8C1403,-162.16 1403,-146.55 1403,-133.24"/>
<polygon fill="blue" stroke="blue" points="1406.5,-133.18 1403,-123.18 1399.5,-133.18 1406.5,-133.18"/>
<text text-anchor="middle" x="1412.5" y="-144.8" font-family="Times New Roman,serif" font-size="14.00">yes</text>
</g>
<!-- rootrrr -->
<g id="node27" class="node">
<title>rootrrr</title>
<ellipse fill="none" stroke="black" cx="1606" cy="-105" rx="48.19" ry="18"/>
<text text-anchor="middle" x="1606" y="-101.3" font-family="Times New Roman,serif" font-size="14.00">f6 &lt; 0.254</text>
</g>
<!-- rootrr&#45;&gt;rootrrr -->
<g id="edge26" class="edge">
<title>rootrr&#45;&gt;rootrrr</title>
<path fill="none" stroke="red" d="M1428.3,-180.41C1462.74,-165.99 1524.76,-140.02 1565.66,-122.89"/>
<polygon fill="red" stroke="red" points="1567.19,-126.05 1575.06,-118.96 1564.48,-119.59 1567.19,-126.05"/>
<text text-anchor="middle" x="1524.5" y="-144.8" font-family="Times New Roman,serif" font-size="14.00">no</text>
</g>
<!-- rootrrll -->
<g id="node25" class="node">
<title>rootrrll</title>
<polygon fill="none" stroke="black" points="1409.5,-36 1288.5,-36 1288.5,0 1409.5,0 1409.5,-36"/>
<text text-anchor="middle" x="1349" y="-14.3" font-family="Times New Roman,serif" font-size="14.00">leaf = &#45;0.06437752</text>
</g>
<!-- rootrrl&#45;&gt;rootrrll -->
<g id="edge24" class="edge">
<title>rootrrl&#45;&gt;rootrrll</title>
<path fill="none" stroke="blue" d="M1392.33,-87.21C1384.62,-75.06 1374.05,-58.43 1365.28,-44.63"/>
<polygon fill="blue" stroke="blue" points="1368.15,-42.61 1359.83,-36.05 1362.24,-46.37 1368.15,-42.61"/>
<text text-anchor="middle" x="1389.5" y="-57.8" font-family="Times New Roman,serif" font-size="14.00">yes</text>
</g>
<!-- rootrrlr -->
<g id="node26" class="node">
<title>rootrrlr</title>
<polygon fill="none" stroke="black" points="1530.5,-36 1427.5,-36 1427.5,0 1530.5,0 1530.5,-36"/>
<text text-anchor="middle" x="1479" y="-14.3" font-family="Times New Roman,serif" font-size="14.00">leaf = 0.298929</text>
</g>
<!-- rootrrl&#45;&gt;rootrrlr -->
<g id="edge25" class="edge">
<title>rootrrl&#45;&gt;rootrrlr</title>
<path fill="none" stroke="red" d="M1417.3,-88.01C1428.47,-75.51 1444.2,-57.92 1456.98,-43.63"/>
<polygon fill="red" stroke="red" points="1459.67,-45.87 1463.73,-36.08 1454.45,-41.2 1459.67,-45.87"/>
<text text-anchor="middle" x="1453.5" y="-57.8" font-family="Times New Roman,serif" font-size="14.00">no</text>
</g>
<!-- rootrrrl -->
<g id="node28" class="node">
<title>rootrrrl</title>
<polygon fill="none" stroke="black" points="1663,-36 1549,-36 1549,0 1663,0 1663,-36"/>
<text text-anchor="middle" x="1606" y="-14.3" font-family="Times New Roman,serif" font-size="14.00">leaf = &#45;0.1144369</text>
</g>
<!-- rootrrr&#45;&gt;rootrrrl -->
<g id="edge27" class="edge">
<title>rootrrr&#45;&gt;rootrrrl</title>
<path fill="none" stroke="blue" d="M1606,-86.8C1606,-75.16 1606,-59.55 1606,-46.24"/>
<polygon fill="blue" stroke="blue" points="1609.5,-46.18 1606,-36.18 1602.5,-46.18 1609.5,-46.18"/>
<text text-anchor="middle" x="1615.5" y="-57.8" font-family="Times New Roman,serif" font-size="14.00">yes</text>
</g>
<!-- rootrrrr -->
<g id="node29" class="node">
<title>rootrrrr</title>
<polygon fill="none" stroke="black" points="1791,-36 1681,-36 1681,0 1791,0 1791,-36"/>
<text text-anchor="middle" x="1736" y="-14.3" font-family="Times New Roman,serif" font-size="14.00">leaf = 0.4515669</text>
</g>
<!-- rootrrr&#45;&gt;rootrrrr -->
<g id="edge28" class="edge">
<title>rootrrr&#45;&gt;rootrrrr</title>
<path fill="none" stroke="red" d="M1628.94,-89C1648.98,-75.9 1678.36,-56.69 1701.28,-41.7"/>
<polygon fill="red" stroke="red" points="1703.25,-44.59 1709.71,-36.19 1699.42,-38.73 1703.25,-44.59"/>
<text text-anchor="middle" x="1686.5" y="-57.8" font-family="Times New Roman,serif" font-size="14.00">no</text>
</g>
</g>
</svg>
