<?xml version="1.0" encoding="UTF-8" standalone="no"?>
<!DOCTYPE svg PUBLIC "-//W3C//DTD SVG 1.1//EN"
 "http://www.w3.org/Graphics/SVG/1.1/DTD/svg11.dtd">
<!-- Generated by graphviz version 2.44.1 (20200629.0846)
 -->
<!-- Pages: 1 -->
<svg width="1675pt" height="392pt"
 viewBox="0.00 0.00 1675.00 392.00" xmlns="http://www.w3.org/2000/svg" xmlns:xlink="http://www.w3.org/1999/xlink">
<g id="graph0" class="graph" transform="scale(1 1) rotate(0) translate(4 388)">
<polygon fill="white" stroke="transparent" points="-4,4 -4,-388 1671,-388 1671,4 -4,4"/>
<!-- root -->
<g id="node1" class="node">
<title>root</title>
<ellipse fill="none" stroke="black" cx="732" cy="-366" rx="41.69" ry="18"/>
<text text-anchor="middle" x="732" y="-362.3" font-family="Times New Roman,serif" font-size="14.00">f1 &lt; 128</text>
</g>
<!-- rootl -->
<g id="node2" class="node">
<title>rootl</title>
<ellipse fill="none" stroke="black" cx="468" cy="-279" rx="37.09" ry="18"/>
<text text-anchor="middle" x="468" y="-275.3" font-family="Times New Roman,serif" font-size="14.00">f7 &lt; 29</text>
</g>
<!-- root&#45;&gt;rootl -->
<g id="edge1" class="edge">
<title>root&#45;&gt;rootl</title>
<path fill="none" stroke="blue" d="M699.63,-354.58C651.25,-339 560.19,-309.68 507.81,-292.82"/>
<polygon fill="blue" stroke="blue" points="508.78,-289.45 498.19,-289.72 506.63,-296.12 508.78,-289.45"/>
<text text-anchor="middle" x="625.5" y="-318.8" font-family="Times New Roman,serif" font-size="14.00">yes</text>
</g>
<!-- rootr -->
<g id="node15" class="node">
<title>rootr</title>
<ellipse fill="none" stroke="black" cx="981" cy="-279" rx="37.09" ry="18"/>
<text text-anchor="middle" x="981" y="-275.3" font-family="Times New Roman,serif" font-size="14.00">f5 &lt; 30</text>
</g>
<!-- root&#45;&gt;rootr -->
<g id="edge14" class="edge">
<title>root&#45;&gt;rootr</title>
<path fill="none" stroke="red" d="M763.54,-354.23C808.96,-338.73 892.73,-310.13 941.99,-293.32"/>
<polygon fill="red" stroke="red" points="943.32,-296.56 951.65,-290.02 941.06,-289.94 943.32,-296.56"/>
<text text-anchor="middle" x="879.5" y="-318.8" font-family="Times New Roman,serif" font-size="14.00">no</text>
</g>
<!-- rootll -->
<g id="node3" class="node">
<title>rootll</title>
<ellipse fill="none" stroke="black" cx="285" cy="-192" rx="32.49" ry="18"/>
<text text-anchor="middle" x="285" y="-188.3" font-family="Times New Roman,serif" font-size="14.00">f0 &lt; 8</text>
</g>
<!-- rootl&#45;&gt;rootll -->
<g id="edge2" class="edge">
<title>rootl&#45;&gt;rootll</title>
<path fill="none" stroke="blue" d="M442.17,-266C409.84,-250.99 354.39,-225.23 318.74,-208.67"/>
<polygon fill="blue" stroke="blue" points="319.79,-205.3 309.24,-204.26 316.84,-211.65 319.79,-205.3"/>
<text text-anchor="middle" x="397.5" y="-231.8" font-family="Times New Roman,serif" font-size="14.00">yes</text>
</g>
<!-- rootlr -->
<g id="node8" class="node">
<title>rootlr</title>
<ellipse fill="none" stroke="black" cx="468" cy="-192" rx="41.69" ry="18"/>
<text text-anchor="middle" x="468" y="-188.3" font-family="Times New Roman,serif" font-size="14.00">f4 &lt; 150</text>
</g>
<!-- rootl&#45;&gt;rootlr -->
<g id="edge7" class="edge">
<title>rootl&#45;&gt;rootlr</title>
<path fill="none" stroke="red" d="M468,-260.8C468,-249.16 468,-233.55 468,-220.24"/>
<polygon fill="red" stroke="red" points="471.5,-220.18 468,-210.18 464.5,-220.18 471.5,-220.18"/>
<text text-anchor="middle" x="475.5" y="-231.8" font-family="Times New Roman,serif" font-size="14.00">no</text>
</g>
<!-- rootlll -->
<g id="node4" class="node">
<title>rootlll</title>
<ellipse fill="none" stroke="black" cx="164" cy="-105" rx="44.39" ry="18"/>
<text text-anchor="middle" x="164" y="-101.3" font-family="Times New Roman,serif" font-size="14.00">f5 &lt; 52.9</text>
</g>
<!-- rootll&#45;&gt;rootlll -->
<g id="edge3" class="edge">
<title>rootll&#45;&gt;rootlll</title>
<path fill="none" stroke="blue" d="M265.56,-177.34C246.22,-163.75 216.27,-142.72 193.9,-127"/>
<polygon fill="blue" stroke="blue" points="195.63,-123.94 185.43,-121.06 191.6,-129.67 195.63,-123.94"/>
<text text-anchor="middle" x="241.5" y="-144.8" font-family="Times New Roman,serif" font-size="14.00">yes</text>
</g>
<!-- rootllr -->
<g id="node7" class="node">
<title>rootllr</title>
<polygon fill="none" stroke="black" points="319.5,-123 250.5,-123 250.5,-87 319.5,-87 319.5,-123"/>
<text text-anchor="middle" x="285" y="-101.3" font-family="Times New Roman,serif" font-size="14.00">leaf = 0.2</text>
</g>
<!-- rootll&#45;&gt;rootllr -->
<g id="edge6" class="edge">
<title>rootll&#45;&gt;rootllr</title>
<path fill="none" stroke="red" d="M285,-173.8C285,-162.16 285,-146.55 285,-133.24"/>
<polygon fill="red" stroke="red" points="288.5,-133.18 285,-123.18 281.5,-133.18 288.5,-133.18"/>
<text text-anchor="middle" x="292.5" y="-144.8" font-family="Times New Roman,serif" font-size="14.00">no</text>
</g>
<!-- rootllll -->
<g id="node5" class="node">
<title>rootllll</title>
<polygon fill="none" stroke="black" points="114,-36 0,-36 0,0 114,0 114,-36"/>
<text text-anchor="middle" x="57" y="-14.3" font-family="Times New Roman,serif" font-size="14.00">leaf = &#45;0.8584906</text>
</g>
<!-- rootlll&#45;&gt;rootllll -->
<g id="edge4" class="edge">
<title>rootlll&#45;&gt;rootllll</title>
<path fill="none" stroke="blue" d="M144.37,-88.41C128.26,-75.61 105.18,-57.27 86.79,-42.66"/>
<polygon fill="blue" stroke="blue" points="88.72,-39.73 78.71,-36.25 84.36,-45.21 88.72,-39.73"/>
<text text-anchor="middle" x="126.5" y="-57.8" font-family="Times New Roman,serif" font-size="14.00">yes</text>
</g>
<!-- rootlllr -->
<g id="node6" class="node">
<title>rootlllr</title>
<polygon fill="none" stroke="black" points="195.5,-36 132.5,-36 132.5,0 195.5,0 195.5,-36"/>
<text text-anchor="middle" x="164" y="-14.3" font-family="Times New Roman,serif" font-size="14.00">leaf = &#45;0</text>
</g>
<!-- rootlll&#45;&gt;rootlllr -->
<g id="edge5" class="edge">
<title>rootlll&#45;&gt;rootlllr</title>
<path fill="none" stroke="red" d="M164,-86.8C164,-75.16 164,-59.55 164,-46.24"/>
<polygon fill="red" stroke="red" points="167.5,-46.18 164,-36.18 160.5,-46.18 167.5,-46.18"/>
<text text-anchor="middle" x="171.5" y="-57.8" font-family="Times New Roman,serif" font-size="14.00">no</text>
</g>
<!-- rootlrl -->
<g id="node9" class="node">
<title>rootlrl</title>
<ellipse fill="none" stroke="black" cx="403" cy="-105" rx="41.69" ry="18"/>
<text text-anchor="middle" x="403" y="-101.3" font-family="Times New Roman,serif" font-size="14.00">f1 &lt; 101</text>
</g>
<!-- rootlr&#45;&gt;rootlrl -->
<g id="edge8" class="edge">
<title>rootlr&#45;&gt;rootlrl</title>
<path fill="none" stroke="blue" d="M455.47,-174.61C445.94,-162.15 432.66,-144.79 421.85,-130.65"/>
<polygon fill="blue" stroke="blue" points="424.35,-128.16 415.49,-122.34 418.79,-132.41 424.35,-128.16"/>
<text text-anchor="middle" x="449.5" y="-144.8" font-family="Times New Roman,serif" font-size="14.00">yes</text>
</g>
<!-- rootlrr -->
<g id="node12" class="node">
<title>rootlrr</title>
<ellipse fill="none" stroke="black" cx="535" cy="-105" rx="44.39" ry="18"/>
<text text-anchor="middle" x="535" y="-101.3" font-family="Times New Roman,serif" font-size="14.00">f5 &lt; 33.7</text>
</g>
<!-- rootlr&#45;&gt;rootlrr -->
<g id="edge11" class="edge">
<title>rootlr&#45;&gt;rootlrr</title>
<path fill="none" stroke="red" d="M480.92,-174.61C490.84,-162.03 504.68,-144.46 515.88,-130.25"/>
<polygon fill="red" stroke="red" points="518.68,-132.36 522.12,-122.34 513.18,-128.03 518.68,-132.36"/>
<text text-anchor="middle" x="513.5" y="-144.8" font-family="Times New Roman,serif" font-size="14.00">no</text>
</g>
<!-- rootlrll -->
<g id="node10" class="node">
<title>rootlrll</title>
<polygon fill="none" stroke="black" points="328,-36 214,-36 214,0 328,0 328,-36"/>
<text text-anchor="middle" x="271" y="-14.3" font-family="Times New Roman,serif" font-size="14.00">leaf = &#45;0.7460317</text>
</g>
<!-- rootlrl&#45;&gt;rootlrll -->
<g id="edge9" class="edge">
<title>rootlrl&#45;&gt;rootlrll</title>
<path fill="none" stroke="blue" d="M380.61,-89.58C360.26,-76.48 329.9,-56.93 306.29,-41.72"/>
<polygon fill="blue" stroke="blue" points="307.91,-38.6 297.6,-36.13 304.12,-44.49 307.91,-38.6"/>
<text text-anchor="middle" x="354.5" y="-57.8" font-family="Times New Roman,serif" font-size="14.00">yes</text>
</g>
<!-- rootlrlr -->
<g id="node11" class="node">
<title>rootlrlr</title>
<polygon fill="none" stroke="black" points="460,-36 346,-36 346,0 460,0 460,-36"/>
<text text-anchor="middle" x="403" y="-14.3" font-family="Times New Roman,serif" font-size="14.00">leaf = &#45;0.2352941</text>
</g>
<!-- rootlrl&#45;&gt;rootlrlr -->
<g id="edge10" class="edge">
<title>rootlrl&#45;&gt;rootlrlr</title>
<path fill="none" stroke="red" d="M403,-86.8C403,-75.16 403,-59.55 403,-46.24"/>
<polygon fill="red" stroke="red" points="406.5,-46.18 403,-36.18 399.5,-46.18 406.5,-46.18"/>
<text text-anchor="middle" x="410.5" y="-57.8" font-family="Times New Roman,serif" font-size="14.00">no</text>
</g>
<!-- rootlrrl -->
<g id="node13" class="node">
<title>rootlrrl</title>
<polygon fill="none" stroke="black" points="592,-36 478,-36 478,0 592,0 592,-36"/>
<text text-anchor="middle" x="535" y="-14.3" font-family="Times New Roman,serif" font-size="14.00">leaf = &#45;0.1428571</text>
</g>
<!-- rootlrr&#45;&gt;rootlrrl -->
<g id="edge12" class="edge">
<title>rootlrr&#45;&gt;rootlrrl</title>
<path fill="none" stroke="blue" d="M535,-86.8C535,-75.16 535,-59.55 535,-46.24"/>
<polygon fill="blue" stroke="blue" points="538.5,-46.18 535,-36.18 531.5,-46.18 538.5,-46.18"/>
<text text-anchor="middle" x="544.5" y="-57.8" font-family="Times New Roman,serif" font-size="14.00">yes</text>
</g>
<!-- rootlrrr -->
<g id="node14" class="node">
<title>rootlrrr</title>
<polygon fill="none" stroke="black" points="720,-36 610,-36 610,0 720,0 720,-36"/>
<text text-anchor="middle" x="665" y="-14.3" font-family="Times New Roman,serif" font-size="14.00">leaf = 0.5555556</text>
</g>
<!-- rootlrr&#45;&gt;rootlrrr -->
<g id="edge13" class="edge">
<title>rootlrr&#45;&gt;rootlrrr</title>
<path fill="none" stroke="red" d="M557.35,-89.39C577.43,-76.26 607.24,-56.76 630.4,-41.62"/>
<polygon fill="red" stroke="red" points="632.47,-44.45 638.92,-36.05 628.64,-38.59 632.47,-44.45"/>
<text text-anchor="middle" x="615.5" y="-57.8" font-family="Times New Roman,serif" font-size="14.00">no</text>
</g>
<!-- rootrl -->
<g id="node16" class="node">
<title>rootrl</title>
<ellipse fill="none" stroke="black" cx="981" cy="-192" rx="41.69" ry="18"/>
<text text-anchor="middle" x="981" y="-188.3" font-family="Times New Roman,serif" font-size="14.00">f1 &lt; 146</text>
</g>
<!-- rootr&#45;&gt;rootrl -->
<g id="edge15" class="edge">
<title>rootr&#45;&gt;rootrl</title>
<path fill="none" stroke="blue" d="M981,-260.8C981,-249.16 981,-233.55 981,-220.24"/>
<polygon fill="blue" stroke="blue" points="984.5,-220.18 981,-210.18 977.5,-220.18 984.5,-220.18"/>
<text text-anchor="middle" x="990.5" y="-231.8" font-family="Times New Roman,serif" font-size="14.00">yes</text>
</g>
<!-- rootrr -->
<g id="node23" class="node">
<title>rootrr</title>
<ellipse fill="none" stroke="black" cx="1305" cy="-192" rx="48.19" ry="18"/>
<text text-anchor="middle" x="1305" y="-188.3" font-family="Times New Roman,serif" font-size="14.00">f6 &lt; 0.435</text>
</g>
<!-- rootr&#45;&gt;rootrr -->
<g id="edge22" class="edge">
<title>rootr&#45;&gt;rootrr</title>
<path fill="none" stroke="red" d="M1012.95,-269.62C1070.05,-254.64 1189.88,-223.2 1256.94,-205.61"/>
<polygon fill="red" stroke="red" points="1258.05,-208.94 1266.84,-203.01 1256.27,-202.16 1258.05,-208.94"/>
<text text-anchor="middle" x="1170.5" y="-231.8" font-family="Times New Roman,serif" font-size="14.00">no</text>
</g>
<!-- rootrll -->
<g id="node17" class="node">
<title>rootrll</title>
<ellipse fill="none" stroke="black" cx="931" cy="-105" rx="44.39" ry="18"/>
<text text-anchor="middle" x="931" y="-101.3" font-family="Times New Roman,serif" font-size="14.00">f5 &lt; 28.3</text>
</g>
<!-- rootrl&#45;&gt;rootrll -->
<g id="edge16" class="edge">
<title>rootrl&#45;&gt;rootrll</title>
<path fill="none" stroke="blue" d="M971.12,-174.21C964,-162.1 954.25,-145.53 946.15,-131.76"/>
<polygon fill="blue" stroke="blue" points="948.94,-129.6 940.86,-122.76 942.91,-133.15 948.94,-129.6"/>
<text text-anchor="middle" x="968.5" y="-144.8" font-family="Times New Roman,serif" font-size="14.00">yes</text>
</g>
<!-- rootrlr -->
<g id="node20" class="node">
<title>rootrlr</title>
<ellipse fill="none" stroke="black" cx="1051" cy="-105" rx="37.09" ry="18"/>
<text text-anchor="middle" x="1051" y="-101.3" font-family="Times New Roman,serif" font-size="14.00">f7 &lt; 63</text>
</g>
<!-- rootrl&#45;&gt;rootrlr -->
<g id="edge19" class="edge">
<title>rootrl&#45;&gt;rootrlr</title>
<path fill="none" stroke="red" d="M994.5,-174.61C1004.92,-161.95 1019.51,-144.24 1031.25,-129.98"/>
<polygon fill="red" stroke="red" points="1034.13,-131.99 1037.78,-122.05 1028.72,-127.54 1034.13,-131.99"/>
<text text-anchor="middle" x="1028.5" y="-144.8" font-family="Times New Roman,serif" font-size="14.00">no</text>
</g>
<!-- rootrlll -->
<g id="node18" class="node">
<title>rootrlll</title>
<polygon fill="none" stroke="black" points="852,-36 738,-36 738,0 852,0 852,-36"/>
<text text-anchor="middle" x="795" y="-14.3" font-family="Times New Roman,serif" font-size="14.00">leaf = &#45;0.7333333</text>
</g>
<!-- rootrll&#45;&gt;rootrlll -->
<g id="edge17" class="edge">
<title>rootrll&#45;&gt;rootrlll</title>
<path fill="none" stroke="blue" d="M907.93,-89.58C886.87,-76.42 855.41,-56.75 831.04,-41.52"/>
<polygon fill="blue" stroke="blue" points="832.74,-38.46 822.41,-36.13 829.03,-44.4 832.74,-38.46"/>
<text text-anchor="middle" x="881.5" y="-57.8" font-family="Times New Roman,serif" font-size="14.00">yes</text>
</g>
<!-- rootrllr -->
<g id="node19" class="node">
<title>rootrllr</title>
<polygon fill="none" stroke="black" points="991.5,-36 870.5,-36 870.5,0 991.5,0 991.5,-36"/>
<text text-anchor="middle" x="931" y="-14.3" font-family="Times New Roman,serif" font-size="14.00">leaf = &#45;0.09090909</text>
</g>
<!-- rootrll&#45;&gt;rootrllr -->
<g id="edge18" class="edge">
<title>rootrll&#45;&gt;rootrllr</title>
<path fill="none" stroke="red" d="M931,-86.8C931,-75.16 931,-59.55 931,-46.24"/>
<polygon fill="red" stroke="red" points="934.5,-46.18 931,-36.18 927.5,-46.18 934.5,-46.18"/>
<text text-anchor="middle" x="938.5" y="-57.8" font-family="Times New Roman,serif" font-size="14.00">no</text>
</g>
<!-- rootrlrl -->
<g id="node21" class="node">
<title>rootrlrl</title>
<polygon fill="none" stroke="black" points="1092.5,-36 1009.5,-36 1009.5,0 1092.5,0 1092.5,-36"/>
<text text-anchor="middle" x="1051" y="-14.3" font-family="Times New Roman,serif" font-size="14.00">leaf = 0.125</text>
</g>
<!-- rootrlr&#45;&gt;rootrlrl -->
<g id="edge20" class="edge">
<title>rootrlr&#45;&gt;rootrlrl</title>
<path fill="none" stroke="blue" d="M1051,-86.8C1051,-75.16 1051,-59.55 1051,-46.24"/>
<polygon fill="blue" stroke="blue" points="1054.5,-46.18 1051,-36.18 1047.5,-46.18 1054.5,-46.18"/>
<text text-anchor="middle" x="1060.5" y="-57.8" font-family="Times New Roman,serif" font-size="14.00">yes</text>
</g>
<!-- rootrlrr -->
<g id="node22" class="node">
<title>rootrlrr</title>
<polygon fill="none" stroke="black" points="1185,-36 1111,-36 1111,0 1185,0 1185,-36"/>
<text text-anchor="middle" x="1148" y="-14.3" font-family="Times New Roman,serif" font-size="14.00">leaf = &#45;0.5</text>
</g>
<!-- rootrlr&#45;&gt;rootrlrr -->
<g id="edge21" class="edge">
<title>rootrlr&#45;&gt;rootrlrr</title>
<path fill="none" stroke="red" d="M1068.34,-88.8C1082.86,-76.08 1103.84,-57.7 1120.62,-42.99"/>
<polygon fill="red" stroke="red" points="1123.26,-45.33 1128.47,-36.11 1118.65,-40.07 1123.26,-45.33"/>
<text text-anchor="middle" x="1113.5" y="-57.8" font-family="Times New Roman,serif" font-size="14.00">no</text>
</g>
<!-- rootrrl -->
<g id="node24" class="node">
<title>rootrrl</title>
<ellipse fill="none" stroke="black" cx="1305" cy="-105" rx="41.69" ry="18"/>
<text text-anchor="middle" x="1305" y="-101.3" font-family="Times New Roman,serif" font-size="14.00">f1 &lt; 166</text>
</g>
<!-- rootrr&#45;&gt;rootrrl -->
<g id="edge23" class="edge">
<title>rootrr&#45;&gt;rootrrl</title>
<path fill="none" stroke="blue" d="M1305,-173.8C1305,-162.16 1305,-146.55 1305,-133.24"/>
<polygon fill="blue" stroke="blue" points="1308.5,-133.18 1305,-123.18 1301.5,-133.18 1308.5,-133.18"/>
<text text-anchor="middle" x="1314.5" y="-144.8" font-family="Times New Roman,serif" font-size="14.00">yes</text>
</g>
<!-- rootrrr -->
<g id="node27" class="node">
<title>rootrrr</title>
<ellipse fill="none" stroke="black" cx="1480" cy="-105" rx="41.69" ry="18"/>
<text text-anchor="middle" x="1480" y="-101.3" font-family="Times New Roman,serif" font-size="14.00">f4 &lt; 480</text>
</g>
<!-- rootrr&#45;&gt;rootrrr -->
<g id="edge26" class="edge">
<title>rootrr&#45;&gt;rootrrr</title>
<path fill="none" stroke="red" d="M1333.12,-177.34C1363.28,-162.69 1411.27,-139.38 1444.13,-123.42"/>
<polygon fill="red" stroke="red" points="1445.92,-126.44 1453.39,-118.93 1442.86,-120.15 1445.92,-126.44"/>
<text text-anchor="middle" x="1410.5" y="-144.8" font-family="Times New Roman,serif" font-size="14.00">no</text>
</g>
<!-- rootrrll -->
<g id="node25" class="node">
<title>rootrrll</title>
<polygon fill="none" stroke="black" points="1319,-36 1203,-36 1203,0 1319,0 1319,-36"/>
<text text-anchor="middle" x="1261" y="-14.3" font-family="Times New Roman,serif" font-size="14.00">leaf = 0.01754386</text>
</g>
<!-- rootrrl&#45;&gt;rootrrll -->
<g id="edge24" class="edge">
<title>rootrrl&#45;&gt;rootrrll</title>
<path fill="none" stroke="blue" d="M1296.31,-87.21C1290.08,-75.18 1281.58,-58.75 1274.47,-45.03"/>
<polygon fill="blue" stroke="blue" points="1277.53,-43.32 1269.83,-36.05 1271.31,-46.54 1277.53,-43.32"/>
<text text-anchor="middle" x="1295.5" y="-57.8" font-family="Times New Roman,serif" font-size="14.00">yes</text>
</g>
<!-- rootrrlr -->
<g id="node26" class="node">
<title>rootrrlr</title>
<polygon fill="none" stroke="black" points="1406.5,-36 1337.5,-36 1337.5,0 1406.5,0 1406.5,-36"/>
<text text-anchor="middle" x="1372" y="-14.3" font-family="Times New Roman,serif" font-size="14.00">leaf = 0.6</text>
</g>
<!-- rootrrl&#45;&gt;rootrrlr -->
<g id="edge25" class="edge">
<title>rootrrl&#45;&gt;rootrrlr</title>
<path fill="none" stroke="red" d="M1317.92,-87.61C1327.65,-75.27 1341.15,-58.14 1352.23,-44.08"/>
<polygon fill="red" stroke="red" points="1354.99,-46.23 1358.43,-36.21 1349.49,-41.9 1354.99,-46.23"/>
<text text-anchor="middle" x="1350.5" y="-57.8" font-family="Times New Roman,serif" font-size="14.00">no</text>
</g>
<!-- rootrrrl -->
<g id="node28" class="node">
<title>rootrrrl</title>
<polygon fill="none" stroke="black" points="1535,-36 1425,-36 1425,0 1535,0 1535,-36"/>
<text text-anchor="middle" x="1480" y="-14.3" font-family="Times New Roman,serif" font-size="14.00">leaf = 0.7831325</text>
</g>
<!-- rootrrr&#45;&gt;rootrrrl -->
<g id="edge27" class="edge">
<title>rootrrr&#45;&gt;rootrrrl</title>
<path fill="none" stroke="blue" d="M1480,-86.8C1480,-75.16 1480,-59.55 1480,-46.24"/>
<polygon fill="blue" stroke="blue" points="1483.5,-46.18 1480,-36.18 1476.5,-46.18 1483.5,-46.18"/>
<text text-anchor="middle" x="1489.5" y="-57.8" font-family="Times New Roman,serif" font-size="14.00">yes</text>
</g>
<!-- rootrrrr -->
<g id="node29" class="node">
<title>rootrrrr</title>
<polygon fill="none" stroke="black" points="1667,-36 1553,-36 1553,0 1667,0 1667,-36"/>
<text text-anchor="middle" x="1610" y="-14.3" font-family="Times New Roman,serif" font-size="14.00">leaf = &#45;0.1111111</text>
</g>
<!-- rootrrr&#45;&gt;rootrrrr -->
<g id="edge28" class="edge">
<title>rootrrr&#45;&gt;rootrrrr</title>
<path fill="none" stroke="red" d="M1502.05,-89.58C1522.09,-76.48 1551.99,-56.93 1575.25,-41.72"/>
<polygon fill="red" stroke="red" points="1577.35,-44.53 1583.8,-36.13 1573.52,-38.67 1577.35,-44.53"/>
<text text-anchor="middle" x="1560.5" y="-57.8" font-family="Times New Roman,serif" font-size="14.00">no</text>
</g>
</g>
</svg>
