<?xml version="1.0" encoding="utf-8" standalone="no"?>
<!DOCTYPE svg PUBLIC "-//W3C//DTD SVG 1.1//EN"
  "http://www.w3.org/Graphics/SVG/1.1/DTD/svg11.dtd">
<!-- Created with matplotlib (https://matplotlib.org/) -->
<svg height="915.84pt" version="1.1" viewBox="0 0 1408.32 915.84" width="1408.32pt" xmlns="http://www.w3.org/2000/svg" xmlns:xlink="http://www.w3.org/1999/xlink">
 <metadata>
  <rdf:RDF xmlns:cc="http://creativecommons.org/ns#" xmlns:dc="http://purl.org/dc/elements/1.1/" xmlns:rdf="http://www.w3.org/1999/02/22-rdf-syntax-ns#">
   <cc:Work>
    <dc:type rdf:resource="http://purl.org/dc/dcmitype/StillImage"/>
    <dc:date>2020-11-29T18:18:35.877714</dc:date>
    <dc:format>image/svg+xml</dc:format>
    <dc:creator>
     <cc:Agent>
      <dc:title>Matplotlib v3.3.3, https://matplotlib.org/</dc:title>
     </cc:Agent>
    </dc:creator>
   </cc:Work>
  </rdf:RDF>
 </metadata>
 <defs>
  <style type="text/css">*{stroke-linecap:butt;stroke-linejoin:round;}</style>
 </defs>
 <g id="figure_1">
  <g id="patch_1">
   <path d="M 0 915.84 
L 1408.32 915.84 
L 1408.32 0 
L 0 0 
z
" style="fill:#ffffff;"/>
  </g>
  <g id="axes_1">
   <g id="patch_2">
    <path d="M 176.04 815.0976 
L 1267.488 815.0976 
L 1267.488 109.9008 
L 176.04 109.9008 
z
" style="fill:#ffffff;"/>
   </g>
   <g id="PathCollection_1">
    <defs>
     <path d="M 0 4.743416 
C 1.257969 4.743416 2.464584 4.24362 3.354102 3.354102 
C 4.24362 2.464584 4.743416 1.257969 4.743416 0 
C 4.743416 -1.257969 4.24362 -2.464584 3.354102 -3.354102 
C 2.464584 -4.24362 1.257969 -4.743416 0 -4.743416 
C -1.257969 -4.743416 -2.464584 -4.24362 -3.354102 -3.354102 
C -4.24362 -2.464584 -4.743416 -1.257969 -4.743416 0 
C -4.743416 1.257969 -4.24362 2.464584 -3.354102 3.354102 
C -2.464584 4.24362 -1.257969 4.743416 0 4.743416 
z
" id="m9cbed804c1" style="stroke:#1f77b4;"/>
    </defs>
    <g clip-path="url(#pbbb67c9cb1)">
     <use style="fill:#1f77b4;stroke:#1f77b4;" x="808.243263" xlink:href="#m9cbed804c1" y="141.9552"/>
     <use style="fill:#1f77b4;stroke:#1f77b4;" x="690.170939" xlink:href="#m9cbed804c1" y="434.645291"/>
     <use style="fill:#1f77b4;stroke:#1f77b4;" x="598.513529" xlink:href="#m9cbed804c1" y="410.720712"/>
     <use style="fill:#1f77b4;stroke:#1f77b4;" x="879.126522" xlink:href="#m9cbed804c1" y="258.74337"/>
     <use style="fill:#1f77b4;stroke:#1f77b4;" x="918.352584" xlink:href="#m9cbed804c1" y="193.042923"/>
     <use style="fill:#1f77b4;stroke:#1f77b4;" x="902.602588" xlink:href="#m9cbed804c1" y="317.399533"/>
     <use style="fill:#1f77b4;stroke:#1f77b4;" x="806.793369" xlink:href="#m9cbed804c1" y="283.162658"/>
     <use style="fill:#1f77b4;stroke:#1f77b4;" x="1027.623312" xlink:href="#m9cbed804c1" y="176.136609"/>
     <use style="fill:#1f77b4;stroke:#1f77b4;" x="524.652522" xlink:href="#m9cbed804c1" y="334.95842"/>
     <use style="fill:#1f77b4;stroke:#1f77b4;" x="718.4024" xlink:href="#m9cbed804c1" y="230.533787"/>
     <use style="fill:#1f77b4;stroke:#1f77b4;" x="1006.84466" xlink:href="#m9cbed804c1" y="315.51979"/>
     <use style="fill:#1f77b4;stroke:#1f77b4;" x="693.101107" xlink:href="#m9cbed804c1" y="334.929831"/>
     <use style="fill:#1f77b4;stroke:#1f77b4;" x="1038.783799" xlink:href="#m9cbed804c1" y="314.65443"/>
     <use style="fill:#1f77b4;stroke:#1f77b4;" x="1007.961335" xlink:href="#m9cbed804c1" y="237.99519"/>
     <use style="fill:#1f77b4;stroke:#1f77b4;" x="855.313862" xlink:href="#m9cbed804c1" y="317.598491"/>
     <use style="fill:#1f77b4;stroke:#1f77b4;" x="886.715479" xlink:href="#m9cbed804c1" y="325.823204"/>
     <use style="fill:#1f77b4;stroke:#1f77b4;" x="507.341238" xlink:href="#m9cbed804c1" y="317.636857"/>
     <use style="fill:#1f77b4;stroke:#1f77b4;" x="565.477486" xlink:href="#m9cbed804c1" y="216.057623"/>
     <use style="fill:#1f77b4;stroke:#1f77b4;" x="620.555132" xlink:href="#m9cbed804c1" y="248.825019"/>
     <use style="fill:#1f77b4;stroke:#1f77b4;" x="711.609116" xlink:href="#m9cbed804c1" y="287.320879"/>
     <use style="fill:#1f77b4;stroke:#1f77b4;" x="612.119224" xlink:href="#m9cbed804c1" y="278.438372"/>
     <use style="fill:#1f77b4;stroke:#1f77b4;" x="656.780299" xlink:href="#m9cbed804c1" y="239.242536"/>
     <use style="fill:#1f77b4;stroke:#1f77b4;" x="890.305815" xlink:href="#m9cbed804c1" y="261.13309"/>
     <use style="fill:#1f77b4;stroke:#1f77b4;" x="840.810261" xlink:href="#m9cbed804c1" y="349.621857"/>
     <use style="fill:#1f77b4;stroke:#1f77b4;" x="753.895869" xlink:href="#m9cbed804c1" y="287.126516"/>
     <use style="fill:#1f77b4;stroke:#1f77b4;" x="747.1275" xlink:href="#m9cbed804c1" y="375.449472"/>
     <use style="fill:#1f77b4;stroke:#1f77b4;" x="943.660628" xlink:href="#m9cbed804c1" y="154.52529"/>
     <use style="fill:#1f77b4;stroke:#1f77b4;" x="755.777677" xlink:href="#m9cbed804c1" y="271.877111"/>
     <use style="fill:#1f77b4;stroke:#1f77b4;" x="663.384228" xlink:href="#m9cbed804c1" y="239.052419"/>
     <use style="fill:#1f77b4;stroke:#1f77b4;" x="809.917875" xlink:href="#m9cbed804c1" y="335.821599"/>
     <use style="fill:#1f77b4;stroke:#1f77b4;" x="868.31565" xlink:href="#m9cbed804c1" y="204.478312"/>
     <use style="fill:#1f77b4;stroke:#1f77b4;" x="866.140969" xlink:href="#m9cbed804c1" y="210.971372"/>
     <use style="fill:#1f77b4;stroke:#1f77b4;" x="1019.505835" xlink:href="#m9cbed804c1" y="237.208433"/>
     <use style="fill:#1f77b4;stroke:#1f77b4;" x="887.505045" xlink:href="#m9cbed804c1" y="220.363349"/>
     <use style="fill:#1f77b4;stroke:#1f77b4;" x="685.168644" xlink:href="#m9cbed804c1" y="260.494266"/>
    </g>
   </g>
   <g id="PathCollection_2">
    <defs>
     <path d="M -4.743416 4.743416 
L 4.743416 4.743416 
L 4.743416 -4.743416 
L -4.743416 -4.743416 
z
" id="m0ae5deba58" style="stroke:#ff7f0e;"/>
    </defs>
    <g clip-path="url(#pbbb67c9cb1)">
     <use style="fill:#ff7f0e;stroke:#ff7f0e;" x="586.737078" xlink:href="#m0ae5deba58" y="507.719192"/>
     <use style="fill:#ff7f0e;stroke:#ff7f0e;" x="876.448719" xlink:href="#m0ae5deba58" y="414.051666"/>
     <use style="fill:#ff7f0e;stroke:#ff7f0e;" x="415.624514" xlink:href="#m0ae5deba58" y="421.862377"/>
     <use style="fill:#ff7f0e;stroke:#ff7f0e;" x="947.774662" xlink:href="#m0ae5deba58" y="419.777404"/>
     <use style="fill:#ff7f0e;stroke:#ff7f0e;" x="1000.237676" xlink:href="#m0ae5deba58" y="565.970232"/>
     <use style="fill:#ff7f0e;stroke:#ff7f0e;" x="719.996801" xlink:href="#m0ae5deba58" y="465.401136"/>
     <use style="fill:#ff7f0e;stroke:#ff7f0e;" x="960.827244" xlink:href="#m0ae5deba58" y="627.414966"/>
     <use style="fill:#ff7f0e;stroke:#ff7f0e;" x="807.183491" xlink:href="#m0ae5deba58" y="449.711163"/>
     <use style="fill:#ff7f0e;stroke:#ff7f0e;" x="805.214721" xlink:href="#m0ae5deba58" y="584.511837"/>
     <use style="fill:#ff7f0e;stroke:#ff7f0e;" x="779.416253" xlink:href="#m0ae5deba58" y="672.026339"/>
     <use style="fill:#ff7f0e;stroke:#ff7f0e;" x="974.140549" xlink:href="#m0ae5deba58" y="465.19096"/>
     <use style="fill:#ff7f0e;stroke:#ff7f0e;" x="1130.195274" xlink:href="#m0ae5deba58" y="563.49303"/>
     <use style="fill:#ff7f0e;stroke:#ff7f0e;" x="538.865019" xlink:href="#m0ae5deba58" y="711.043082"/>
     <use style="fill:#ff7f0e;stroke:#ff7f0e;" x="755.327116" xlink:href="#m0ae5deba58" y="754.713805"/>
     <use style="fill:#ff7f0e;stroke:#ff7f0e;" x="469.58018" xlink:href="#m0ae5deba58" y="585.23308"/>
     <use style="fill:#ff7f0e;stroke:#ff7f0e;" x="225.651273" xlink:href="#m0ae5deba58" y="752.35174"/>
     <use style="fill:#ff7f0e;stroke:#ff7f0e;" x="861.866354" xlink:href="#m0ae5deba58" y="552.067573"/>
     <use style="fill:#ff7f0e;stroke:#ff7f0e;" x="748.975874" xlink:href="#m0ae5deba58" y="533.942698"/>
     <use style="fill:#ff7f0e;stroke:#ff7f0e;" x="900.594919" xlink:href="#m0ae5deba58" y="366.23433"/>
     <use style="fill:#ff7f0e;stroke:#ff7f0e;" x="594.425535" xlink:href="#m0ae5deba58" y="783.0432"/>
     <use style="fill:#ff7f0e;stroke:#ff7f0e;" x="1003.418924" xlink:href="#m0ae5deba58" y="496.450471"/>
     <use style="fill:#ff7f0e;stroke:#ff7f0e;" x="739.435025" xlink:href="#m0ae5deba58" y="560.895666"/>
     <use style="fill:#ff7f0e;stroke:#ff7f0e;" x="978.603233" xlink:href="#m0ae5deba58" y="451.528897"/>
     <use style="fill:#ff7f0e;stroke:#ff7f0e;" x="996.262524" xlink:href="#m0ae5deba58" y="667.963742"/>
     <use style="fill:#ff7f0e;stroke:#ff7f0e;" x="944.25457" xlink:href="#m0ae5deba58" y="585.093872"/>
     <use style="fill:#ff7f0e;stroke:#ff7f0e;" x="701.196563" xlink:href="#m0ae5deba58" y="773.698003"/>
     <use style="fill:#ff7f0e;stroke:#ff7f0e;" x="847.957499" xlink:href="#m0ae5deba58" y="458.66526"/>
     <use style="fill:#ff7f0e;stroke:#ff7f0e;" x="1053.357323" xlink:href="#m0ae5deba58" y="493.489662"/>
     <use style="fill:#ff7f0e;stroke:#ff7f0e;" x="827.095582" xlink:href="#m0ae5deba58" y="423.068513"/>
     <use style="fill:#ff7f0e;stroke:#ff7f0e;" x="1098.148116" xlink:href="#m0ae5deba58" y="388.682926"/>
     <use style="fill:#ff7f0e;stroke:#ff7f0e;" x="752.562673" xlink:href="#m0ae5deba58" y="504.417801"/>
     <use style="fill:#ff7f0e;stroke:#ff7f0e;" x="675.774071" xlink:href="#m0ae5deba58" y="528.887062"/>
     <use style="fill:#ff7f0e;stroke:#ff7f0e;" x="889.906371" xlink:href="#m0ae5deba58" y="612.963068"/>
     <use style="fill:#ff7f0e;stroke:#ff7f0e;" x="680.740841" xlink:href="#m0ae5deba58" y="746.428602"/>
     <use style="fill:#ff7f0e;stroke:#ff7f0e;" x="1217.876727" xlink:href="#m0ae5deba58" y="437.053162"/>
    </g>
   </g>
   <g id="matplotlib.axis_1">
    <g id="xtick_1">
     <g id="line2d_1">
      <path clip-path="url(#pbbb67c9cb1)" d="M 328.847878 815.0976 
L 328.847878 109.9008 
" style="fill:none;stroke:#b0b0b0;stroke-linecap:square;stroke-width:0.8;"/>
     </g>
     <g id="line2d_2">
      <defs>
       <path d="M 0 0 
L 0 3.5 
" id="md667e6617a" style="stroke:#000000;stroke-width:0.8;"/>
      </defs>
      <g>
       <use style="stroke:#000000;stroke-width:0.8;" x="328.847878" xlink:href="#md667e6617a" y="815.0976"/>
      </g>
     </g>
     <g id="text_1">
      <!-- −3 -->
      <g transform="translate(321.476784 829.696038)scale(0.1 -0.1)">
       <defs>
        <path d="M 10.59375 35.5 
L 73.1875 35.5 
L 73.1875 27.203125 
L 10.59375 27.203125 
z
" id="DejaVuSans-8722"/>
        <path d="M 40.578125 39.3125 
Q 47.65625 37.796875 51.625 33 
Q 55.609375 28.21875 55.609375 21.1875 
Q 55.609375 10.40625 48.1875 4.484375 
Q 40.765625 -1.421875 27.09375 -1.421875 
Q 22.515625 -1.421875 17.65625 -0.515625 
Q 12.796875 0.390625 7.625 2.203125 
L 7.625 11.71875 
Q 11.71875 9.328125 16.59375 8.109375 
Q 21.484375 6.890625 26.8125 6.890625 
Q 36.078125 6.890625 40.9375 10.546875 
Q 45.796875 14.203125 45.796875 21.1875 
Q 45.796875 27.640625 41.28125 31.265625 
Q 36.765625 34.90625 28.71875 34.90625 
L 20.21875 34.90625 
L 20.21875 43.015625 
L 29.109375 43.015625 
Q 36.375 43.015625 40.234375 45.921875 
Q 44.09375 48.828125 44.09375 54.296875 
Q 44.09375 59.90625 40.109375 62.90625 
Q 36.140625 65.921875 28.71875 65.921875 
Q 24.65625 65.921875 20.015625 65.03125 
Q 15.375 64.15625 9.8125 62.3125 
L 9.8125 71.09375 
Q 15.4375 72.65625 20.34375 73.4375 
Q 25.25 74.21875 29.59375 74.21875 
Q 40.828125 74.21875 47.359375 69.109375 
Q 53.90625 64.015625 53.90625 55.328125 
Q 53.90625 49.265625 50.4375 45.09375 
Q 46.96875 40.921875 40.578125 39.3125 
z
" id="DejaVuSans-51"/>
       </defs>
       <use xlink:href="#DejaVuSans-8722"/>
       <use x="83.789062" xlink:href="#DejaVuSans-51"/>
      </g>
     </g>
    </g>
    <g id="xtick_2">
     <g id="line2d_3">
      <path clip-path="url(#pbbb67c9cb1)" d="M 489.590003 815.0976 
L 489.590003 109.9008 
" style="fill:none;stroke:#b0b0b0;stroke-linecap:square;stroke-width:0.8;"/>
     </g>
     <g id="line2d_4">
      <g>
       <use style="stroke:#000000;stroke-width:0.8;" x="489.590003" xlink:href="#md667e6617a" y="815.0976"/>
      </g>
     </g>
     <g id="text_2">
      <!-- −2 -->
      <g transform="translate(482.218909 829.696038)scale(0.1 -0.1)">
       <defs>
        <path d="M 19.1875 8.296875 
L 53.609375 8.296875 
L 53.609375 0 
L 7.328125 0 
L 7.328125 8.296875 
Q 12.9375 14.109375 22.625 23.890625 
Q 32.328125 33.6875 34.8125 36.53125 
Q 39.546875 41.84375 41.421875 45.53125 
Q 43.3125 49.21875 43.3125 52.78125 
Q 43.3125 58.59375 39.234375 62.25 
Q 35.15625 65.921875 28.609375 65.921875 
Q 23.96875 65.921875 18.8125 64.3125 
Q 13.671875 62.703125 7.8125 59.421875 
L 7.8125 69.390625 
Q 13.765625 71.78125 18.9375 73 
Q 24.125 74.21875 28.421875 74.21875 
Q 39.75 74.21875 46.484375 68.546875 
Q 53.21875 62.890625 53.21875 53.421875 
Q 53.21875 48.921875 51.53125 44.890625 
Q 49.859375 40.875 45.40625 35.40625 
Q 44.1875 33.984375 37.640625 27.21875 
Q 31.109375 20.453125 19.1875 8.296875 
z
" id="DejaVuSans-50"/>
       </defs>
       <use xlink:href="#DejaVuSans-8722"/>
       <use x="83.789062" xlink:href="#DejaVuSans-50"/>
      </g>
     </g>
    </g>
    <g id="xtick_3">
     <g id="line2d_5">
      <path clip-path="url(#pbbb67c9cb1)" d="M 650.332128 815.0976 
L 650.332128 109.9008 
" style="fill:none;stroke:#b0b0b0;stroke-linecap:square;stroke-width:0.8;"/>
     </g>
     <g id="line2d_6">
      <g>
       <use style="stroke:#000000;stroke-width:0.8;" x="650.332128" xlink:href="#md667e6617a" y="815.0976"/>
      </g>
     </g>
     <g id="text_3">
      <!-- −1 -->
      <g transform="translate(642.961035 829.696038)scale(0.1 -0.1)">
       <defs>
        <path d="M 12.40625 8.296875 
L 28.515625 8.296875 
L 28.515625 63.921875 
L 10.984375 60.40625 
L 10.984375 69.390625 
L 28.421875 72.90625 
L 38.28125 72.90625 
L 38.28125 8.296875 
L 54.390625 8.296875 
L 54.390625 0 
L 12.40625 0 
z
" id="DejaVuSans-49"/>
       </defs>
       <use xlink:href="#DejaVuSans-8722"/>
       <use x="83.789062" xlink:href="#DejaVuSans-49"/>
      </g>
     </g>
    </g>
    <g id="xtick_4">
     <g id="line2d_7">
      <path clip-path="url(#pbbb67c9cb1)" d="M 811.074254 815.0976 
L 811.074254 109.9008 
" style="fill:none;stroke:#b0b0b0;stroke-linecap:square;stroke-width:0.8;"/>
     </g>
     <g id="line2d_8">
      <g>
       <use style="stroke:#000000;stroke-width:0.8;" x="811.074254" xlink:href="#md667e6617a" y="815.0976"/>
      </g>
     </g>
     <g id="text_4">
      <!-- 0 -->
      <g transform="translate(807.893004 829.696038)scale(0.1 -0.1)">
       <defs>
        <path d="M 31.78125 66.40625 
Q 24.171875 66.40625 20.328125 58.90625 
Q 16.5 51.421875 16.5 36.375 
Q 16.5 21.390625 20.328125 13.890625 
Q 24.171875 6.390625 31.78125 6.390625 
Q 39.453125 6.390625 43.28125 13.890625 
Q 47.125 21.390625 47.125 36.375 
Q 47.125 51.421875 43.28125 58.90625 
Q 39.453125 66.40625 31.78125 66.40625 
z
M 31.78125 74.21875 
Q 44.046875 74.21875 50.515625 64.515625 
Q 56.984375 54.828125 56.984375 36.375 
Q 56.984375 17.96875 50.515625 8.265625 
Q 44.046875 -1.421875 31.78125 -1.421875 
Q 19.53125 -1.421875 13.0625 8.265625 
Q 6.59375 17.96875 6.59375 36.375 
Q 6.59375 54.828125 13.0625 64.515625 
Q 19.53125 74.21875 31.78125 74.21875 
z
" id="DejaVuSans-48"/>
       </defs>
       <use xlink:href="#DejaVuSans-48"/>
      </g>
     </g>
    </g>
    <g id="xtick_5">
     <g id="line2d_9">
      <path clip-path="url(#pbbb67c9cb1)" d="M 971.816379 815.0976 
L 971.816379 109.9008 
" style="fill:none;stroke:#b0b0b0;stroke-linecap:square;stroke-width:0.8;"/>
     </g>
     <g id="line2d_10">
      <g>
       <use style="stroke:#000000;stroke-width:0.8;" x="971.816379" xlink:href="#md667e6617a" y="815.0976"/>
      </g>
     </g>
     <g id="text_5">
      <!-- 1 -->
      <g transform="translate(968.635129 829.696038)scale(0.1 -0.1)">
       <use xlink:href="#DejaVuSans-49"/>
      </g>
     </g>
    </g>
    <g id="xtick_6">
     <g id="line2d_11">
      <path clip-path="url(#pbbb67c9cb1)" d="M 1132.558504 815.0976 
L 1132.558504 109.9008 
" style="fill:none;stroke:#b0b0b0;stroke-linecap:square;stroke-width:0.8;"/>
     </g>
     <g id="line2d_12">
      <g>
       <use style="stroke:#000000;stroke-width:0.8;" x="1132.558504" xlink:href="#md667e6617a" y="815.0976"/>
      </g>
     </g>
     <g id="text_6">
      <!-- 2 -->
      <g transform="translate(1129.377254 829.696038)scale(0.1 -0.1)">
       <use xlink:href="#DejaVuSans-50"/>
      </g>
     </g>
    </g>
    <g id="text_7">
     <!-- X_1 -->
     <g transform="translate(712.65775 843.096038)scale(0.1 -0.1)">
      <defs>
       <path d="M 6.296875 72.90625 
L 16.890625 72.90625 
L 35.015625 45.796875 
L 53.21875 72.90625 
L 63.8125 72.90625 
L 40.375 37.890625 
L 65.375 0 
L 54.78125 0 
L 34.28125 31 
L 13.625 0 
L 2.984375 0 
L 29 38.921875 
z
" id="DejaVuSans-88"/>
       <path d="M 50.984375 -16.609375 
L 50.984375 -23.578125 
L -0.984375 -23.578125 
L -0.984375 -16.609375 
z
" id="DejaVuSans-95"/>
      </defs>
      <use xlink:href="#DejaVuSans-88"/>
      <use x="68.505859" xlink:href="#DejaVuSans-95"/>
      <use x="118.505859" xlink:href="#DejaVuSans-49"/>
     </g>
    </g>
   </g>
   <g id="matplotlib.axis_2">
    <g id="ytick_1">
     <g id="line2d_13">
      <path clip-path="url(#pbbb67c9cb1)" d="M 176.04 786.702545 
L 1267.488 786.702545 
" style="fill:none;stroke:#b0b0b0;stroke-linecap:square;stroke-width:0.8;"/>
     </g>
     <g id="line2d_14">
      <defs>
       <path d="M 0 0 
L -3.5 0 
" id="m6a8540659f" style="stroke:#000000;stroke-width:0.8;"/>
      </defs>
      <g>
       <use style="stroke:#000000;stroke-width:0.8;" x="176.04" xlink:href="#m6a8540659f" y="786.702545"/>
      </g>
     </g>
     <g id="text_8">
      <!-- −2.5 -->
      <g transform="translate(144.757187 790.501764)scale(0.1 -0.1)">
       <defs>
        <path d="M 10.6875 12.40625 
L 21 12.40625 
L 21 0 
L 10.6875 0 
z
" id="DejaVuSans-46"/>
        <path d="M 10.796875 72.90625 
L 49.515625 72.90625 
L 49.515625 64.59375 
L 19.828125 64.59375 
L 19.828125 46.734375 
Q 21.96875 47.46875 24.109375 47.828125 
Q 26.265625 48.1875 28.421875 48.1875 
Q 40.625 48.1875 47.75 41.5 
Q 54.890625 34.8125 54.890625 23.390625 
Q 54.890625 11.625 47.5625 5.09375 
Q 40.234375 -1.421875 26.90625 -1.421875 
Q 22.3125 -1.421875 17.546875 -0.640625 
Q 12.796875 0.140625 7.71875 1.703125 
L 7.71875 11.625 
Q 12.109375 9.234375 16.796875 8.0625 
Q 21.484375 6.890625 26.703125 6.890625 
Q 35.15625 6.890625 40.078125 11.328125 
Q 45.015625 15.765625 45.015625 23.390625 
Q 45.015625 31 40.078125 35.4375 
Q 35.15625 39.890625 26.703125 39.890625 
Q 22.75 39.890625 18.8125 39.015625 
Q 14.890625 38.140625 10.796875 36.28125 
z
" id="DejaVuSans-53"/>
       </defs>
       <use xlink:href="#DejaVuSans-8722"/>
       <use x="83.789062" xlink:href="#DejaVuSans-50"/>
       <use x="147.412109" xlink:href="#DejaVuSans-46"/>
       <use x="179.199219" xlink:href="#DejaVuSans-53"/>
      </g>
     </g>
    </g>
    <g id="ytick_2">
     <g id="line2d_15">
      <path clip-path="url(#pbbb67c9cb1)" d="M 176.04 689.326714 
L 1267.488 689.326714 
" style="fill:none;stroke:#b0b0b0;stroke-linecap:square;stroke-width:0.8;"/>
     </g>
     <g id="line2d_16">
      <g>
       <use style="stroke:#000000;stroke-width:0.8;" x="176.04" xlink:href="#m6a8540659f" y="689.326714"/>
      </g>
     </g>
     <g id="text_9">
      <!-- 0.0 -->
      <g transform="translate(153.136875 693.125933)scale(0.1 -0.1)">
       <use xlink:href="#DejaVuSans-48"/>
       <use x="63.623047" xlink:href="#DejaVuSans-46"/>
       <use x="95.410156" xlink:href="#DejaVuSans-48"/>
      </g>
     </g>
    </g>
    <g id="ytick_3">
     <g id="line2d_17">
      <path clip-path="url(#pbbb67c9cb1)" d="M 176.04 591.950883 
L 1267.488 591.950883 
" style="fill:none;stroke:#b0b0b0;stroke-linecap:square;stroke-width:0.8;"/>
     </g>
     <g id="line2d_18">
      <g>
       <use style="stroke:#000000;stroke-width:0.8;" x="176.04" xlink:href="#m6a8540659f" y="591.950883"/>
      </g>
     </g>
     <g id="text_10">
      <!-- 2.5 -->
      <g transform="translate(153.136875 595.750102)scale(0.1 -0.1)">
       <use xlink:href="#DejaVuSans-50"/>
       <use x="63.623047" xlink:href="#DejaVuSans-46"/>
       <use x="95.410156" xlink:href="#DejaVuSans-53"/>
      </g>
     </g>
    </g>
    <g id="ytick_4">
     <g id="line2d_19">
      <path clip-path="url(#pbbb67c9cb1)" d="M 176.04 494.575052 
L 1267.488 494.575052 
" style="fill:none;stroke:#b0b0b0;stroke-linecap:square;stroke-width:0.8;"/>
     </g>
     <g id="line2d_20">
      <g>
       <use style="stroke:#000000;stroke-width:0.8;" x="176.04" xlink:href="#m6a8540659f" y="494.575052"/>
      </g>
     </g>
     <g id="text_11">
      <!-- 5.0 -->
      <g transform="translate(153.136875 498.374271)scale(0.1 -0.1)">
       <use xlink:href="#DejaVuSans-53"/>
       <use x="63.623047" xlink:href="#DejaVuSans-46"/>
       <use x="95.410156" xlink:href="#DejaVuSans-48"/>
      </g>
     </g>
    </g>
    <g id="ytick_5">
     <g id="line2d_21">
      <path clip-path="url(#pbbb67c9cb1)" d="M 176.04 397.199221 
L 1267.488 397.199221 
" style="fill:none;stroke:#b0b0b0;stroke-linecap:square;stroke-width:0.8;"/>
     </g>
     <g id="line2d_22">
      <g>
       <use style="stroke:#000000;stroke-width:0.8;" x="176.04" xlink:href="#m6a8540659f" y="397.199221"/>
      </g>
     </g>
     <g id="text_12">
      <!-- 7.5 -->
      <g transform="translate(153.136875 400.99844)scale(0.1 -0.1)">
       <defs>
        <path d="M 8.203125 72.90625 
L 55.078125 72.90625 
L 55.078125 68.703125 
L 28.609375 0 
L 18.3125 0 
L 43.21875 64.59375 
L 8.203125 64.59375 
z
" id="DejaVuSans-55"/>
       </defs>
       <use xlink:href="#DejaVuSans-55"/>
       <use x="63.623047" xlink:href="#DejaVuSans-46"/>
       <use x="95.410156" xlink:href="#DejaVuSans-53"/>
      </g>
     </g>
    </g>
    <g id="ytick_6">
     <g id="line2d_23">
      <path clip-path="url(#pbbb67c9cb1)" d="M 176.04 299.82339 
L 1267.488 299.82339 
" style="fill:none;stroke:#b0b0b0;stroke-linecap:square;stroke-width:0.8;"/>
     </g>
     <g id="line2d_24">
      <g>
       <use style="stroke:#000000;stroke-width:0.8;" x="176.04" xlink:href="#m6a8540659f" y="299.82339"/>
      </g>
     </g>
     <g id="text_13">
      <!-- 10.0 -->
      <g transform="translate(146.774375 303.622609)scale(0.1 -0.1)">
       <use xlink:href="#DejaVuSans-49"/>
       <use x="63.623047" xlink:href="#DejaVuSans-48"/>
       <use x="127.246094" xlink:href="#DejaVuSans-46"/>
       <use x="159.033203" xlink:href="#DejaVuSans-48"/>
      </g>
     </g>
    </g>
    <g id="ytick_7">
     <g id="line2d_25">
      <path clip-path="url(#pbbb67c9cb1)" d="M 176.04 202.447559 
L 1267.488 202.447559 
" style="fill:none;stroke:#b0b0b0;stroke-linecap:square;stroke-width:0.8;"/>
     </g>
     <g id="line2d_26">
      <g>
       <use style="stroke:#000000;stroke-width:0.8;" x="176.04" xlink:href="#m6a8540659f" y="202.447559"/>
      </g>
     </g>
     <g id="text_14">
      <!-- 12.5 -->
      <g transform="translate(146.774375 206.246778)scale(0.1 -0.1)">
       <use xlink:href="#DejaVuSans-49"/>
       <use x="63.623047" xlink:href="#DejaVuSans-50"/>
       <use x="127.246094" xlink:href="#DejaVuSans-46"/>
       <use x="159.033203" xlink:href="#DejaVuSans-53"/>
      </g>
     </g>
    </g>
    <g id="text_15">
     <!-- X_2 -->
     <g transform="translate(138.399375 471.60545)rotate(-90)scale(0.1 -0.1)">
      <use xlink:href="#DejaVuSans-88"/>
      <use x="68.505859" xlink:href="#DejaVuSans-95"/>
      <use x="118.505859" xlink:href="#DejaVuSans-50"/>
     </g>
    </g>
   </g>
   <g id="line2d_27">
    <path clip-path="url(#pbbb67c9cb1)" d="M 225.651273 417.957369 
L 1217.430186 348.448493 
L 1217.430186 348.448493 
" style="fill:none;stroke:#ff0000;stroke-linecap:square;stroke-width:1.5;"/>
   </g>
   <g id="patch_3">
    <path d="M 176.04 815.0976 
L 176.04 109.9008 
" style="fill:none;stroke:#000000;stroke-linecap:square;stroke-linejoin:miter;stroke-width:0.8;"/>
   </g>
   <g id="patch_4">
    <path d="M 1267.488 815.0976 
L 1267.488 109.9008 
" style="fill:none;stroke:#000000;stroke-linecap:square;stroke-linejoin:miter;stroke-width:0.8;"/>
   </g>
   <g id="patch_5">
    <path d="M 176.04 815.0976 
L 1267.488 815.0976 
" style="fill:none;stroke:#000000;stroke-linecap:square;stroke-linejoin:miter;stroke-width:0.8;"/>
   </g>
   <g id="patch_6">
    <path d="M 176.04 109.9008 
L 1267.488 109.9008 
" style="fill:none;stroke:#000000;stroke-linecap:square;stroke-linejoin:miter;stroke-width:0.8;"/>
   </g>
   <g id="text_16">
    <!-- D1 Train -->
    <g transform="translate(697.027125 103.9008)scale(0.12 -0.12)">
     <defs>
      <path d="M 19.671875 64.796875 
L 19.671875 8.109375 
L 31.59375 8.109375 
Q 46.6875 8.109375 53.6875 14.9375 
Q 60.6875 21.78125 60.6875 36.53125 
Q 60.6875 51.171875 53.6875 57.984375 
Q 46.6875 64.796875 31.59375 64.796875 
z
M 9.8125 72.90625 
L 30.078125 72.90625 
Q 51.265625 72.90625 61.171875 64.09375 
Q 71.09375 55.28125 71.09375 36.53125 
Q 71.09375 17.671875 61.125 8.828125 
Q 51.171875 0 30.078125 0 
L 9.8125 0 
z
" id="DejaVuSans-68"/>
      <path id="DejaVuSans-32"/>
      <path d="M -0.296875 72.90625 
L 61.375 72.90625 
L 61.375 64.59375 
L 35.5 64.59375 
L 35.5 0 
L 25.59375 0 
L 25.59375 64.59375 
L -0.296875 64.59375 
z
" id="DejaVuSans-84"/>
      <path d="M 41.109375 46.296875 
Q 39.59375 47.171875 37.8125 47.578125 
Q 36.03125 48 33.890625 48 
Q 26.265625 48 22.1875 43.046875 
Q 18.109375 38.09375 18.109375 28.8125 
L 18.109375 0 
L 9.078125 0 
L 9.078125 54.6875 
L 18.109375 54.6875 
L 18.109375 46.1875 
Q 20.953125 51.171875 25.484375 53.578125 
Q 30.03125 56 36.53125 56 
Q 37.453125 56 38.578125 55.875 
Q 39.703125 55.765625 41.0625 55.515625 
z
" id="DejaVuSans-114"/>
      <path d="M 34.28125 27.484375 
Q 23.390625 27.484375 19.1875 25 
Q 14.984375 22.515625 14.984375 16.5 
Q 14.984375 11.71875 18.140625 8.90625 
Q 21.296875 6.109375 26.703125 6.109375 
Q 34.1875 6.109375 38.703125 11.40625 
Q 43.21875 16.703125 43.21875 25.484375 
L 43.21875 27.484375 
z
M 52.203125 31.203125 
L 52.203125 0 
L 43.21875 0 
L 43.21875 8.296875 
Q 40.140625 3.328125 35.546875 0.953125 
Q 30.953125 -1.421875 24.3125 -1.421875 
Q 15.921875 -1.421875 10.953125 3.296875 
Q 6 8.015625 6 15.921875 
Q 6 25.140625 12.171875 29.828125 
Q 18.359375 34.515625 30.609375 34.515625 
L 43.21875 34.515625 
L 43.21875 35.40625 
Q 43.21875 41.609375 39.140625 45 
Q 35.0625 48.390625 27.6875 48.390625 
Q 23 48.390625 18.546875 47.265625 
Q 14.109375 46.140625 10.015625 43.890625 
L 10.015625 52.203125 
Q 14.9375 54.109375 19.578125 55.046875 
Q 24.21875 56 28.609375 56 
Q 40.484375 56 46.34375 49.84375 
Q 52.203125 43.703125 52.203125 31.203125 
z
" id="DejaVuSans-97"/>
      <path d="M 9.421875 54.6875 
L 18.40625 54.6875 
L 18.40625 0 
L 9.421875 0 
z
M 9.421875 75.984375 
L 18.40625 75.984375 
L 18.40625 64.59375 
L 9.421875 64.59375 
z
" id="DejaVuSans-105"/>
      <path d="M 54.890625 33.015625 
L 54.890625 0 
L 45.90625 0 
L 45.90625 32.71875 
Q 45.90625 40.484375 42.875 44.328125 
Q 39.84375 48.1875 33.796875 48.1875 
Q 26.515625 48.1875 22.3125 43.546875 
Q 18.109375 38.921875 18.109375 30.90625 
L 18.109375 0 
L 9.078125 0 
L 9.078125 54.6875 
L 18.109375 54.6875 
L 18.109375 46.1875 
Q 21.34375 51.125 25.703125 53.5625 
Q 30.078125 56 35.796875 56 
Q 45.21875 56 50.046875 50.171875 
Q 54.890625 44.34375 54.890625 33.015625 
z
" id="DejaVuSans-110"/>
     </defs>
     <use xlink:href="#DejaVuSans-68"/>
     <use x="77.001953" xlink:href="#DejaVuSans-49"/>
     <use x="140.625" xlink:href="#DejaVuSans-32"/>
     <use x="172.412109" xlink:href="#DejaVuSans-84"/>
     <use x="218.746094" xlink:href="#DejaVuSans-114"/>
     <use x="259.859375" xlink:href="#DejaVuSans-97"/>
     <use x="321.138672" xlink:href="#DejaVuSans-105"/>
     <use x="348.921875" xlink:href="#DejaVuSans-110"/>
    </g>
   </g>
   <g id="legend_1">
    <g id="patch_7">
     <path d="M 1136.439563 161.935175 
L 1260.488 161.935175 
Q 1262.488 161.935175 1262.488 159.935175 
L 1262.488 116.9008 
Q 1262.488 114.9008 1260.488 114.9008 
L 1136.439563 114.9008 
Q 1134.439563 114.9008 1134.439563 116.9008 
L 1134.439563 159.935175 
Q 1134.439563 161.935175 1136.439563 161.935175 
z
" style="fill:#ffffff;opacity:0.8;stroke:#cccccc;stroke-linejoin:miter;"/>
    </g>
    <g id="line2d_28">
     <path d="M 1138.439563 122.999237 
L 1158.439563 122.999237 
" style="fill:none;stroke:#ff0000;stroke-linecap:square;stroke-width:1.5;"/>
    </g>
    <g id="line2d_29"/>
    <g id="text_17">
     <!-- decision boundary -->
     <g transform="translate(1166.439563 126.499237)scale(0.1 -0.1)">
      <defs>
       <path d="M 45.40625 46.390625 
L 45.40625 75.984375 
L 54.390625 75.984375 
L 54.390625 0 
L 45.40625 0 
L 45.40625 8.203125 
Q 42.578125 3.328125 38.25 0.953125 
Q 33.9375 -1.421875 27.875 -1.421875 
Q 17.96875 -1.421875 11.734375 6.484375 
Q 5.515625 14.40625 5.515625 27.296875 
Q 5.515625 40.1875 11.734375 48.09375 
Q 17.96875 56 27.875 56 
Q 33.9375 56 38.25 53.625 
Q 42.578125 51.265625 45.40625 46.390625 
z
M 14.796875 27.296875 
Q 14.796875 17.390625 18.875 11.75 
Q 22.953125 6.109375 30.078125 6.109375 
Q 37.203125 6.109375 41.296875 11.75 
Q 45.40625 17.390625 45.40625 27.296875 
Q 45.40625 37.203125 41.296875 42.84375 
Q 37.203125 48.484375 30.078125 48.484375 
Q 22.953125 48.484375 18.875 42.84375 
Q 14.796875 37.203125 14.796875 27.296875 
z
" id="DejaVuSans-100"/>
       <path d="M 56.203125 29.59375 
L 56.203125 25.203125 
L 14.890625 25.203125 
Q 15.484375 15.921875 20.484375 11.0625 
Q 25.484375 6.203125 34.421875 6.203125 
Q 39.59375 6.203125 44.453125 7.46875 
Q 49.3125 8.734375 54.109375 11.28125 
L 54.109375 2.78125 
Q 49.265625 0.734375 44.1875 -0.34375 
Q 39.109375 -1.421875 33.890625 -1.421875 
Q 20.796875 -1.421875 13.15625 6.1875 
Q 5.515625 13.8125 5.515625 26.8125 
Q 5.515625 40.234375 12.765625 48.109375 
Q 20.015625 56 32.328125 56 
Q 43.359375 56 49.78125 48.890625 
Q 56.203125 41.796875 56.203125 29.59375 
z
M 47.21875 32.234375 
Q 47.125 39.59375 43.09375 43.984375 
Q 39.0625 48.390625 32.421875 48.390625 
Q 24.90625 48.390625 20.390625 44.140625 
Q 15.875 39.890625 15.1875 32.171875 
z
" id="DejaVuSans-101"/>
       <path d="M 48.78125 52.59375 
L 48.78125 44.1875 
Q 44.96875 46.296875 41.140625 47.34375 
Q 37.3125 48.390625 33.40625 48.390625 
Q 24.65625 48.390625 19.8125 42.84375 
Q 14.984375 37.3125 14.984375 27.296875 
Q 14.984375 17.28125 19.8125 11.734375 
Q 24.65625 6.203125 33.40625 6.203125 
Q 37.3125 6.203125 41.140625 7.25 
Q 44.96875 8.296875 48.78125 10.40625 
L 48.78125 2.09375 
Q 45.015625 0.34375 40.984375 -0.53125 
Q 36.96875 -1.421875 32.421875 -1.421875 
Q 20.0625 -1.421875 12.78125 6.34375 
Q 5.515625 14.109375 5.515625 27.296875 
Q 5.515625 40.671875 12.859375 48.328125 
Q 20.21875 56 33.015625 56 
Q 37.15625 56 41.109375 55.140625 
Q 45.0625 54.296875 48.78125 52.59375 
z
" id="DejaVuSans-99"/>
       <path d="M 44.28125 53.078125 
L 44.28125 44.578125 
Q 40.484375 46.53125 36.375 47.5 
Q 32.28125 48.484375 27.875 48.484375 
Q 21.1875 48.484375 17.84375 46.4375 
Q 14.5 44.390625 14.5 40.28125 
Q 14.5 37.15625 16.890625 35.375 
Q 19.28125 33.59375 26.515625 31.984375 
L 29.59375 31.296875 
Q 39.15625 29.25 43.1875 25.515625 
Q 47.21875 21.78125 47.21875 15.09375 
Q 47.21875 7.46875 41.1875 3.015625 
Q 35.15625 -1.421875 24.609375 -1.421875 
Q 20.21875 -1.421875 15.453125 -0.5625 
Q 10.6875 0.296875 5.421875 2 
L 5.421875 11.28125 
Q 10.40625 8.6875 15.234375 7.390625 
Q 20.0625 6.109375 24.8125 6.109375 
Q 31.15625 6.109375 34.5625 8.28125 
Q 37.984375 10.453125 37.984375 14.40625 
Q 37.984375 18.0625 35.515625 20.015625 
Q 33.0625 21.96875 24.703125 23.78125 
L 21.578125 24.515625 
Q 13.234375 26.265625 9.515625 29.90625 
Q 5.8125 33.546875 5.8125 39.890625 
Q 5.8125 47.609375 11.28125 51.796875 
Q 16.75 56 26.8125 56 
Q 31.78125 56 36.171875 55.265625 
Q 40.578125 54.546875 44.28125 53.078125 
z
" id="DejaVuSans-115"/>
       <path d="M 30.609375 48.390625 
Q 23.390625 48.390625 19.1875 42.75 
Q 14.984375 37.109375 14.984375 27.296875 
Q 14.984375 17.484375 19.15625 11.84375 
Q 23.34375 6.203125 30.609375 6.203125 
Q 37.796875 6.203125 41.984375 11.859375 
Q 46.1875 17.53125 46.1875 27.296875 
Q 46.1875 37.015625 41.984375 42.703125 
Q 37.796875 48.390625 30.609375 48.390625 
z
M 30.609375 56 
Q 42.328125 56 49.015625 48.375 
Q 55.71875 40.765625 55.71875 27.296875 
Q 55.71875 13.875 49.015625 6.21875 
Q 42.328125 -1.421875 30.609375 -1.421875 
Q 18.84375 -1.421875 12.171875 6.21875 
Q 5.515625 13.875 5.515625 27.296875 
Q 5.515625 40.765625 12.171875 48.375 
Q 18.84375 56 30.609375 56 
z
" id="DejaVuSans-111"/>
       <path d="M 48.6875 27.296875 
Q 48.6875 37.203125 44.609375 42.84375 
Q 40.53125 48.484375 33.40625 48.484375 
Q 26.265625 48.484375 22.1875 42.84375 
Q 18.109375 37.203125 18.109375 27.296875 
Q 18.109375 17.390625 22.1875 11.75 
Q 26.265625 6.109375 33.40625 6.109375 
Q 40.53125 6.109375 44.609375 11.75 
Q 48.6875 17.390625 48.6875 27.296875 
z
M 18.109375 46.390625 
Q 20.953125 51.265625 25.265625 53.625 
Q 29.59375 56 35.59375 56 
Q 45.5625 56 51.78125 48.09375 
Q 58.015625 40.1875 58.015625 27.296875 
Q 58.015625 14.40625 51.78125 6.484375 
Q 45.5625 -1.421875 35.59375 -1.421875 
Q 29.59375 -1.421875 25.265625 0.953125 
Q 20.953125 3.328125 18.109375 8.203125 
L 18.109375 0 
L 9.078125 0 
L 9.078125 75.984375 
L 18.109375 75.984375 
z
" id="DejaVuSans-98"/>
       <path d="M 8.5 21.578125 
L 8.5 54.6875 
L 17.484375 54.6875 
L 17.484375 21.921875 
Q 17.484375 14.15625 20.5 10.265625 
Q 23.53125 6.390625 29.59375 6.390625 
Q 36.859375 6.390625 41.078125 11.03125 
Q 45.3125 15.671875 45.3125 23.6875 
L 45.3125 54.6875 
L 54.296875 54.6875 
L 54.296875 0 
L 45.3125 0 
L 45.3125 8.40625 
Q 42.046875 3.421875 37.71875 1 
Q 33.40625 -1.421875 27.6875 -1.421875 
Q 18.265625 -1.421875 13.375 4.4375 
Q 8.5 10.296875 8.5 21.578125 
z
M 31.109375 56 
z
" id="DejaVuSans-117"/>
       <path d="M 32.171875 -5.078125 
Q 28.375 -14.84375 24.75 -17.8125 
Q 21.140625 -20.796875 15.09375 -20.796875 
L 7.90625 -20.796875 
L 7.90625 -13.28125 
L 13.1875 -13.28125 
Q 16.890625 -13.28125 18.9375 -11.515625 
Q 21 -9.765625 23.484375 -3.21875 
L 25.09375 0.875 
L 2.984375 54.6875 
L 12.5 54.6875 
L 29.59375 11.921875 
L 46.6875 54.6875 
L 56.203125 54.6875 
z
" id="DejaVuSans-121"/>
      </defs>
      <use xlink:href="#DejaVuSans-100"/>
      <use x="63.476562" xlink:href="#DejaVuSans-101"/>
      <use x="125" xlink:href="#DejaVuSans-99"/>
      <use x="179.980469" xlink:href="#DejaVuSans-105"/>
      <use x="207.763672" xlink:href="#DejaVuSans-115"/>
      <use x="259.863281" xlink:href="#DejaVuSans-105"/>
      <use x="287.646484" xlink:href="#DejaVuSans-111"/>
      <use x="348.828125" xlink:href="#DejaVuSans-110"/>
      <use x="412.207031" xlink:href="#DejaVuSans-32"/>
      <use x="443.994141" xlink:href="#DejaVuSans-98"/>
      <use x="507.470703" xlink:href="#DejaVuSans-111"/>
      <use x="568.652344" xlink:href="#DejaVuSans-117"/>
      <use x="632.03125" xlink:href="#DejaVuSans-110"/>
      <use x="695.410156" xlink:href="#DejaVuSans-100"/>
      <use x="758.886719" xlink:href="#DejaVuSans-97"/>
      <use x="820.166016" xlink:href="#DejaVuSans-114"/>
      <use x="861.279297" xlink:href="#DejaVuSans-121"/>
     </g>
    </g>
    <g id="PathCollection_3">
     <g>
      <use style="fill:#1f77b4;stroke:#1f77b4;" x="1148.439563" xlink:href="#m9cbed804c1" y="138.552362"/>
     </g>
    </g>
    <g id="text_18">
     <!-- label = -1 -->
     <g transform="translate(1166.439563 141.177362)scale(0.1 -0.1)">
      <defs>
       <path d="M 9.421875 75.984375 
L 18.40625 75.984375 
L 18.40625 0 
L 9.421875 0 
z
" id="DejaVuSans-108"/>
       <path d="M 10.59375 45.40625 
L 73.1875 45.40625 
L 73.1875 37.203125 
L 10.59375 37.203125 
z
M 10.59375 25.484375 
L 73.1875 25.484375 
L 73.1875 17.1875 
L 10.59375 17.1875 
z
" id="DejaVuSans-61"/>
       <path d="M 4.890625 31.390625 
L 31.203125 31.390625 
L 31.203125 23.390625 
L 4.890625 23.390625 
z
" id="DejaVuSans-45"/>
      </defs>
      <use xlink:href="#DejaVuSans-108"/>
      <use x="27.783203" xlink:href="#DejaVuSans-97"/>
      <use x="89.0625" xlink:href="#DejaVuSans-98"/>
      <use x="152.539062" xlink:href="#DejaVuSans-101"/>
      <use x="214.0625" xlink:href="#DejaVuSans-108"/>
      <use x="241.845703" xlink:href="#DejaVuSans-32"/>
      <use x="273.632812" xlink:href="#DejaVuSans-61"/>
      <use x="357.421875" xlink:href="#DejaVuSans-32"/>
      <use x="389.208984" xlink:href="#DejaVuSans-45"/>
      <use x="425.292969" xlink:href="#DejaVuSans-49"/>
     </g>
    </g>
    <g id="PathCollection_4">
     <g>
      <use style="fill:#ff7f0e;stroke:#ff7f0e;" x="1148.439563" xlink:href="#m0ae5deba58" y="153.230487"/>
     </g>
    </g>
    <g id="text_19">
     <!-- label = 1 -->
     <g transform="translate(1166.439563 155.855487)scale(0.1 -0.1)">
      <use xlink:href="#DejaVuSans-108"/>
      <use x="27.783203" xlink:href="#DejaVuSans-97"/>
      <use x="89.0625" xlink:href="#DejaVuSans-98"/>
      <use x="152.539062" xlink:href="#DejaVuSans-101"/>
      <use x="214.0625" xlink:href="#DejaVuSans-108"/>
      <use x="241.845703" xlink:href="#DejaVuSans-32"/>
      <use x="273.632812" xlink:href="#DejaVuSans-61"/>
      <use x="357.421875" xlink:href="#DejaVuSans-32"/>
      <use x="389.208984" xlink:href="#DejaVuSans-49"/>
     </g>
    </g>
   </g>
  </g>
 </g>
 <defs>
  <clipPath id="pbbb67c9cb1">
   <rect height="705.1968" width="1091.448" x="176.04" y="109.9008"/>
  </clipPath>
 </defs>
</svg>
